<svg viewBox="0 0 20 20" fill="none" xmlns="http://www.w3.org/2000/svg" xmlns:xlink="http://www.w3.org/1999/xlink">
    <g clip-path="url(#phone)">
        <path d="M15.7237 12.5809L13.7129 12.3513C13.23 12.2959 12.755 12.4621 12.4146 12.8025L10.9579 14.2592C8.71747 13.1192 6.8808 11.2904 5.7408 9.0421L7.20539 7.57752C7.5458 7.2371 7.71205 6.7621 7.65664 6.27918L7.42705 4.28418C7.33205 3.4846 6.65914 2.88293 5.85164 2.88293H4.48205C3.58747 2.88293 2.8433 3.6271 2.89872 4.52168C3.3183 11.2825 8.72539 16.6817 15.4783 17.1013C16.3729 17.1567 17.1171 16.4125 17.1171 15.5179V14.1484C17.125 13.3488 16.5233 12.6759 15.7237 12.5809Z" fill="white" />
    </g>
    <clipPath id="phone">
        <rect x="0.5" y="0.5" width="19" height="19" rx="9.5" fill="#ffffff" />
    </clipPath>
</svg>