<?xml version="1.0" encoding="UTF-8"?>
<svg xmlns="http://www.w3.org/2000/svg" width="715" height="98" viewBox="0 0 715 98" fill="none">
    <style>
        .label {
            fill: #FF0031;
        }
        .text {
            -webkit-user-select: none;
            -moz-user-select: none;
            -ms-user-select: none;
            user-select: none;
        }
    </style>
    <path class="label" d="M5.73042 0H708.353C709.873 0 711.331 0.603739 712.405 1.6784C713.48 2.75306 714.084 4.21062 714.084 5.73042V92.2696C714.084 93.7894 713.48 95.2469 712.405 96.3216C711.331 97.3963 709.873 98 708.353 98H5.73042C4.21062 98 2.75306 97.3963 1.6784 96.3216C0.603739 95.2469 0 93.7894 0 92.2696L0 5.73042C0 4.21062 0.603739 2.75306 1.6784 1.6784C2.75306 0.603739 4.21062 0 5.73042 0Z"></path>
    <path d="M5.73042 0H14.3281V98H5.73042C4.21062 98 2.75306 97.3963 1.6784 96.3216C0.603739 95.2469 0 93.7894 0 92.2696L0 5.73042C0 4.21062 0.603739 2.75306 1.6784 1.6784C2.75306 0.603739 4.21062 0 5.73042 0Z" fill="black"></path>
    <path class="text" d="M52.1381 67.4714C49.1738 67.4928 46.2193 67.1286 43.3489 66.388C40.8368 65.7555 38.4361 64.7428 36.2301 63.3848L40.7494 56.0209C42.3353 57.02 44.0271 57.84 45.7939 58.4659C47.3473 59.0594 48.9905 59.384 50.653 59.4258C51.1438 59.4627 51.6355 59.3667 52.0763 59.1477C52.2165 59.0597 52.3306 58.9356 52.4067 58.7886C52.4828 58.6415 52.518 58.4767 52.5089 58.3114C52.5089 58.1054 52.3235 57.9201 51.9527 57.7553C51.3299 57.5153 50.6876 57.3292 50.033 57.1991L47.6189 56.5173C45.8782 56.015 44.1809 55.373 42.5435 54.5976C41.0823 53.8826 39.802 52.846 38.7987 51.5655C37.7163 50.15 37.1586 48.4028 37.2209 46.6219C37.1889 44.6615 37.7851 42.7422 38.9223 41.1449C40.1427 39.49 41.8056 38.2133 43.7196 37.4619C45.9615 36.5615 48.361 36.1196 50.7766 36.1622C53.5338 36.1561 56.2801 36.51 58.9458 37.2148C61.2734 37.7703 63.4777 38.753 65.4466 40.1129L61.4856 47.2317C59.9877 46.3596 58.3991 45.6537 56.748 45.1265C55.3436 44.6351 53.8724 44.3614 52.3853 44.315C51.9077 44.2781 51.4286 44.3631 50.9929 44.5621C50.8631 44.6369 50.7562 44.7457 50.6836 44.8767C50.611 45.0077 50.5755 45.156 50.5809 45.3057C50.5809 45.5529 50.7663 45.7589 51.137 45.9237C51.8218 46.1835 52.5256 46.3901 53.2422 46.5416C53.9439 46.7476 54.625 46.9536 55.2855 47.1596C57.5966 47.9025 59.3818 48.5527 60.641 49.1102C62.0092 49.7514 63.2152 50.6927 64.1695 51.8642C65.3253 53.3192 65.9111 55.1456 65.8174 57.0014C65.8572 58.9822 65.2369 60.9199 64.0542 62.5093C62.7931 64.1422 61.1142 65.404 59.1951 66.1614C56.9539 67.0653 54.5543 67.5108 52.1381 67.4714ZM67.6094 37.2662H82.1538V40.7947C83.0132 39.3955 84.2315 38.2518 85.6823 37.4825C87.2337 36.6939 88.9559 36.3005 90.6959 36.3373C93.0744 36.2963 95.408 36.9881 97.38 38.3188C99.3656 39.6948 100.922 41.6042 101.868 43.8268C102.954 46.3462 103.492 49.0676 103.446 51.8106V51.8724C103.496 54.6358 102.958 57.3782 101.868 59.9181C100.92 62.1421 99.362 64.0524 97.3738 65.4281C95.3816 66.7647 93.0265 67.4565 90.6279 67.4096C88.9593 67.4251 87.3122 67.0319 85.8306 66.2644C84.3583 65.4944 83.0946 64.3791 82.1476 63.014V77.1258H67.6094V37.2662ZM85.1879 58.2496C85.6556 58.2816 86.1226 58.1791 86.5339 57.9543C86.9453 57.7294 87.2837 57.3917 87.5093 56.9808C88.0895 55.5595 88.3334 54.0235 88.222 52.4924V51.2565C88.3334 49.7255 88.0895 48.1894 87.5093 46.7682C87.2837 46.3573 86.9453 46.0195 86.5339 45.7947C86.1226 45.5699 85.6556 45.4674 85.1879 45.4993C84.7065 45.4347 84.2168 45.515 83.7813 45.73C83.3458 45.945 82.9843 46.2849 82.7429 46.7064C82.2752 47.9611 82.0752 49.2999 82.1559 50.6365V53.1083C82.0752 54.445 82.2752 55.7837 82.7429 57.0385C82.984 57.4603 83.3454 57.8006 83.7809 58.016C84.2165 58.2314 84.7063 58.3141 85.1879 58.2496ZM122.942 67.4096C119.579 67.5098 116.234 66.8875 113.131 65.5846C110.609 64.4909 108.497 62.628 107.096 60.2621C105.676 57.6998 104.97 54.8029 105.053 51.8745C104.967 48.9477 105.696 46.0546 107.158 43.5178C108.623 41.152 110.781 39.2939 113.337 38.1952C116.489 36.8749 119.887 36.2429 123.303 36.3414C126.656 36.2471 129.99 36.8693 133.083 38.1664C135.622 39.252 137.75 41.1167 139.159 43.491C140.58 46.0533 141.285 48.9502 141.203 51.8786C141.289 54.8054 140.56 57.6985 139.097 60.2353C137.632 62.6011 135.475 64.4592 132.918 65.5579C129.763 66.8786 126.361 67.51 122.942 67.4096ZM123.128 58.8058C123.635 58.84 124.14 58.7192 124.577 58.4595C125.013 58.1997 125.361 57.8133 125.573 57.3515C126.155 55.7155 126.397 53.9781 126.285 52.2453V51.5017C126.397 49.7688 126.155 48.0314 125.573 46.3954C125.362 45.931 125.014 45.5422 124.576 45.2808C124.138 45.0195 123.63 44.8981 123.122 44.9329C122.615 44.8987 122.109 45.0195 121.673 45.2792C121.236 45.5389 120.888 45.9254 120.677 46.3871C120.095 48.0231 119.852 49.7606 119.964 51.4934V52.237C119.852 53.9699 120.095 55.7073 120.677 57.3433C120.887 57.8066 121.234 58.1948 121.671 58.456C122.108 58.7173 122.614 58.8393 123.122 58.8058H123.128ZM142.935 37.2662H157.479V42.3416C157.964 40.7735 158.985 39.4259 160.363 38.5351C161.91 37.6355 163.681 37.1954 165.469 37.2662H166.398V49.3368H161.69C160.516 49.2086 159.337 49.5174 158.377 50.204C158.054 50.563 157.808 50.9843 157.654 51.4419C157.499 51.8996 157.44 52.3839 157.479 52.8653V66.4827H142.935V37.2662ZM178.71 66.4807C176.872 66.4162 175.077 65.9066 173.48 64.9955C172.321 64.2339 171.474 63.08 171.097 61.7451C170.633 59.9367 170.425 58.0724 170.479 56.2063V45.1265H167.321V37.2662H170.477V31.0868L184.65 25.5253V37.2848H188.55V45.1451H184.467V56.8428C184.456 57.02 184.484 57.1975 184.548 57.3631C184.612 57.5288 184.711 57.6787 184.838 57.8026C185.133 58.0457 185.509 58.1673 185.89 58.1425H188.552V66.4992L178.71 66.4807ZM189.479 37.2662H203.897L207.24 49.5222L211.14 37.2662H222.405L226.18 49.4604L229.408 37.2662H240.241L230.578 66.4807H219.004L214.732 53.0486L210.458 66.4807H198.702L189.479 37.2662ZM256.011 67.3396C252.812 67.4259 249.634 66.8136 246.696 65.5455C244.239 64.4577 242.183 62.6292 240.815 60.3156C239.415 57.7915 238.72 54.937 238.803 52.0516C238.727 49.1093 239.42 46.198 240.815 43.6064C242.158 41.2321 244.201 39.3302 246.665 38.1602C249.554 36.8318 252.709 36.1862 255.887 36.2734C258.133 36.1254 260.387 36.4299 262.513 37.1686C264.639 37.9074 266.596 39.0655 268.267 40.5743C269.781 42.2233 270.945 44.1624 271.689 46.2743C272.432 48.3862 272.74 50.627 272.592 52.8611V54.3463H252.478C252.478 55.5806 252.955 56.7674 253.809 57.6585C254.747 58.4009 255.927 58.768 257.121 58.6884C258.187 58.7142 259.234 58.4114 260.122 57.8212C260.962 57.2586 261.552 56.3939 261.77 55.4071L272.292 57.2609C271.655 60.436 269.785 63.2292 267.093 65.0285C263.676 66.781 259.85 67.5821 256.017 67.3478L256.011 67.3396ZM259.166 48.7703C259.22 47.6158 258.952 46.4691 258.392 45.4582C258.113 45.0999 257.749 44.8178 257.332 44.6377C256.916 44.4577 256.46 44.3857 256.009 44.4282C255.524 44.3927 255.037 44.4691 254.586 44.6516C254.136 44.8342 253.733 45.1178 253.409 45.4808C252.75 46.4441 252.424 47.5963 252.48 48.7621L259.166 48.7703ZM283.738 66.4724C281.9 66.408 280.105 65.8983 278.508 64.9873C277.349 64.2257 276.503 63.0717 276.125 61.7369C275.661 59.9285 275.453 58.0641 275.507 56.1981V45.1183H272.355V37.258H275.511V31.0786L289.685 25.517V37.2765H293.584V45.1368H289.499V56.8345C289.488 57.0118 289.516 57.1893 289.58 57.3549C289.644 57.5205 289.743 57.6704 289.87 57.7944C290.165 58.0375 290.541 58.159 290.923 58.1343H293.584V66.491L283.738 66.4724ZM306.701 66.4724C304.863 66.408 303.068 65.8983 301.471 64.9873C300.311 64.2257 299.465 63.0717 299.088 61.7369C298.624 59.9285 298.416 58.0641 298.47 56.1981V45.1183H295.322V37.258H298.478V31.0786L312.652 25.517V37.2765H316.539V45.1368H312.454V56.8345C312.443 57.0118 312.471 57.1893 312.535 57.3549C312.599 57.5205 312.698 57.6704 312.825 57.7944C313.119 58.0375 313.496 58.159 313.877 58.1343H316.539V66.491L306.701 66.4724ZM334.366 67.3396C331.168 67.4259 327.989 66.8136 325.052 65.5455C322.594 64.4577 320.538 62.6292 319.171 60.3156C317.77 57.7916 317.075 54.937 317.159 52.0516C317.082 49.1093 317.776 46.198 319.171 43.6064C320.514 41.2321 322.557 39.3302 325.021 38.1602C327.913 36.8331 331.072 36.1903 334.253 36.2817C336.499 36.1337 338.752 36.4381 340.879 37.1769C343.005 37.9156 344.962 39.0738 346.632 40.5826C348.147 42.2316 349.311 44.1707 350.055 46.2826C350.798 48.3945 351.106 50.6353 350.958 52.8694V54.3545H330.842C330.842 55.5889 331.318 56.7756 332.173 57.6667C333.111 58.4091 334.291 58.7762 335.485 58.6966C336.55 58.7224 337.598 58.4197 338.486 57.8294C339.325 57.2668 339.916 56.4021 340.134 55.4153L350.655 57.2691C350.018 60.4443 348.149 63.2374 345.456 65.0367C342.036 66.7879 338.207 67.5862 334.372 67.3478L334.366 67.3396ZM337.522 48.7703C337.576 47.6158 337.308 46.4691 336.747 45.4582C336.469 45.0999 336.104 44.8178 335.688 44.6377C335.271 44.4577 334.816 44.3857 334.364 44.4282C333.879 44.3927 333.393 44.4691 332.942 44.6516C332.491 44.8342 332.088 45.1178 331.765 45.4808C331.106 46.4441 330.78 47.5963 330.836 48.7621L337.522 48.7703ZM352.686 37.258H366.983V41.2252C367.839 39.7092 369.105 38.465 370.636 37.635C372.31 36.7425 374.185 36.295 376.082 36.3352C377.489 36.2583 378.896 36.4992 380.198 37.0402C381.5 37.5811 382.663 38.4081 383.602 39.46C385.561 42.0585 386.517 45.2765 386.294 48.5232V66.4724H371.812V49.8229C371.868 48.9551 371.687 48.0883 371.286 47.3161C371.094 47.032 370.829 46.8046 370.519 46.6575C370.209 46.5104 369.865 46.4491 369.523 46.4798C369.179 46.4594 368.836 46.5286 368.527 46.6806C368.218 46.8326 367.954 47.0622 367.76 47.347C367.325 48.0951 367.121 48.955 367.173 49.8188V66.4683H352.69L352.686 37.258ZM390.008 44.8093H408.205V54.7129H390.008V44.8093ZM412.289 25.3749H426.648V47.2234L433.085 37.258H447.755L438.657 47.9691L447.693 66.4765H433.023L428.698 57.3783L426.654 59.8501V66.4724H412.295L412.289 25.3749ZM456.853 67.3952C454.252 67.5296 451.691 66.7157 449.644 65.1047C448.751 64.335 448.044 63.3722 447.578 62.2891C447.111 61.2061 446.897 60.0311 446.952 58.8532C446.872 57.1402 447.463 55.4637 448.6 54.1794C449.69 53.0053 451.05 52.1133 452.561 51.5799C454.367 50.9542 456.219 50.468 458.1 50.1257C458.966 49.9609 459.833 49.8167 460.699 49.6931C461.991 49.5294 463.272 49.2914 464.536 48.9804C465.36 48.7539 465.835 48.4106 465.96 47.9505V47.7651C465.996 47.4221 465.962 47.0754 465.861 46.7456C465.76 46.4159 465.594 46.1097 465.373 45.8454C464.918 45.4506 464.326 45.2508 463.725 45.2892C462.996 45.2435 462.277 45.4761 461.712 45.9401C461.465 46.1852 461.274 46.4805 461.151 46.8061C461.028 47.1316 460.976 47.4797 461 47.8269V48.3831H447.755C447.684 46.6791 448.027 44.9834 448.755 43.4409C449.482 41.8984 450.573 40.5551 451.932 39.5259C455.461 37.1643 459.671 36.0326 463.908 36.3064C469.644 36.3064 473.832 37.4001 476.473 39.5877C479.114 41.7752 480.434 45.3455 480.434 50.2987V66.4539H465.89V62.2457C465.093 63.7833 463.895 65.0771 462.423 65.9904C460.74 66.9797 458.811 67.4718 456.86 67.4096L456.853 67.3952ZM463.414 59.3496C463.962 59.3699 464.503 59.2187 464.961 58.917C465.407 58.5856 465.75 58.1351 465.952 57.6173V53.3473L465.301 53.5326L464.65 53.718C464.564 53.719 464.479 53.7402 464.403 53.7798C463.566 54.0473 462.781 54.4555 462.081 54.9869C461.801 55.263 461.587 55.598 461.453 55.9675C461.319 56.337 461.269 56.7317 461.307 57.1229C461.281 57.7051 461.467 58.277 461.832 58.7316C462.032 58.9502 462.279 59.1205 462.554 59.2297C462.83 59.3389 463.127 59.3841 463.422 59.3619L463.414 59.3496ZM483.283 37.2539H497.597V41.2252C498.453 39.7092 499.718 38.465 501.249 37.635C502.923 36.7425 504.798 36.295 506.695 36.3352C508.102 36.2583 509.509 36.4992 510.811 37.0402C512.113 37.5811 513.277 38.4081 514.215 39.46C516.174 42.0585 517.13 45.2765 516.907 48.5232V66.4724H502.425V49.8229C502.481 48.9551 502.3 48.0883 501.9 47.3161C501.707 47.032 501.442 46.8046 501.132 46.6575C500.822 46.5104 500.478 46.4491 500.136 46.4798C499.793 46.4594 499.449 46.5286 499.14 46.6806C498.831 46.8326 498.567 47.0622 498.373 47.347C497.938 48.0951 497.734 48.955 497.786 49.8188V66.4683H483.303L483.283 37.2539ZM518.749 60.8986L529.46 46.0431H519.431V37.2539H546.478V42.8154L536.327 57.6708H546.54V66.4601H518.755L518.749 60.8986ZM549.263 25.3708H563.807V66.4683H549.263V25.3708ZM582.809 67.3355C579.611 67.4218 576.432 66.8095 573.495 65.5414C571.037 64.4536 568.981 62.6251 567.614 60.3115C566.213 57.7874 565.518 54.9329 565.601 52.0475C565.525 49.1052 566.219 46.1939 567.614 43.6023C568.957 41.2281 571 39.3262 573.464 38.1561C576.352 36.8277 579.508 36.1821 582.686 36.2693C584.932 36.1213 587.185 36.4257 589.311 37.1645C591.438 37.9033 593.394 39.0614 595.065 40.5702C596.58 42.2192 597.744 44.1583 598.487 46.2702C599.231 48.3821 599.538 50.6229 599.391 52.857V54.3422H579.275C579.274 55.5765 579.751 56.7632 580.605 57.6543C581.543 58.3968 582.724 58.7639 583.917 58.6842C584.983 58.7101 586.031 58.4073 586.919 57.8171C587.758 57.2544 588.348 56.3898 588.566 55.403L599.088 57.2568C598.451 60.4319 596.581 63.2251 593.889 65.0244C590.473 66.778 586.648 67.5805 582.815 67.3478L582.809 67.3355ZM585.965 48.7662C586.019 47.6117 585.751 46.465 585.19 45.454C584.912 45.0958 584.547 44.8136 584.131 44.6336C583.714 44.4536 583.259 44.3815 582.807 44.4241C582.322 44.3886 581.836 44.465 581.385 44.6475C580.934 44.83 580.531 45.1137 580.208 45.4767C579.549 46.44 579.223 47.5922 579.279 48.758L585.965 48.7662ZM601.129 37.2539H615.624V66.4683H601.142L601.129 37.2539ZM601.129 25.3708H615.624V34.9654H601.142L601.129 25.3708ZM620.708 60.2023H626.698V66.4683H620.708V60.2023ZM644.095 67.0863C641.657 67.1302 639.256 66.4878 637.166 65.2324C635.115 63.9645 633.475 62.1303 632.443 59.951C631.269 57.4391 630.692 54.6896 630.758 51.9177C630.7 49.1525 631.276 46.4108 632.443 43.903C633.476 41.7008 635.121 39.8419 637.18 38.5475C639.266 37.2657 641.674 36.6061 644.122 36.6462C646.227 36.61 648.301 37.1584 650.114 38.2302C651.88 39.3 653.33 40.8189 654.318 42.6321V24.7631H658.512V66.4807H654.318V61.1437C653.348 62.9588 651.903 64.4755 650.136 65.5311C648.306 66.595 646.218 67.1371 644.101 67.0986L644.095 67.0863ZM645.001 63.3909C646.785 63.4304 648.539 62.9277 650.031 61.9491C651.499 60.9481 652.652 59.5499 653.354 57.918C654.159 56.0608 654.556 54.0527 654.52 52.029V51.5614C654.56 49.5384 654.173 47.5297 653.385 45.6662C652.703 44.0526 651.556 42.6791 650.089 41.7216C648.564 40.7717 646.794 40.2891 644.997 40.3333C643.662 40.2764 642.33 40.5218 641.103 41.051C639.875 41.5803 638.783 42.3799 637.907 43.3901C636.046 45.7445 635.109 48.6984 635.275 51.6953V52.202C635.099 55.1729 636.033 58.1031 637.895 60.4248C638.785 61.4183 639.885 62.2012 641.115 62.7168C642.345 63.2323 643.675 63.4675 645.008 63.4053L645.001 63.3909ZM677.707 67.0286C675.043 67.0958 672.409 66.4417 670.086 65.1356C667.949 63.8897 666.221 62.048 665.113 59.8357C663.912 57.3936 663.313 54.6987 663.369 51.9775C663.317 49.2272 663.943 46.5066 665.192 44.0554C666.34 41.8162 668.09 39.9411 670.244 38.6401C672.458 37.324 674.994 36.65 677.569 36.6936C679.398 36.6014 681.224 36.9125 682.92 37.6048C684.615 38.2972 686.137 39.3538 687.378 40.7C689.904 43.7688 691.182 47.6755 690.96 51.6438V53.2525H667.696C667.723 55.9886 668.749 58.6205 670.58 60.6534C671.505 61.5982 672.621 62.3359 673.852 62.8181C675.083 63.3003 676.403 63.5159 677.724 63.4507C679.957 63.5733 682.171 62.9802 684.043 61.7575C685.59 60.6223 686.767 59.055 687.425 57.2527L691.199 58.6822C690.244 61.1332 688.568 63.2374 686.393 64.7175C683.809 66.3671 680.778 67.1792 677.715 67.043L677.707 67.0286ZM686.453 49.9321C686.542 47.3241 685.653 44.777 683.961 42.7907C683.123 41.9313 682.111 41.2605 680.993 40.8229C679.875 40.3853 678.677 40.191 677.478 40.253C676.23 40.2124 674.987 40.4245 673.823 40.8765C672.658 41.3286 671.598 42.0112 670.704 42.8834C668.854 44.7796 667.762 47.2865 667.633 49.9321H686.453Z" fill="white"></path>
</svg>
