<svg width="488" height="88" viewBox="0 0 488 88" fill="none" xmlns="http://www.w3.org/2000/svg">
<g clip-path="url(#clip0_1705_1142)">
<mask id="mask0_1705_1142" style="mask-type:luminance" maskUnits="userSpaceOnUse" x="0" y="0" width="488" height="88">
<path d="M0 88H487.39V0H0V88Z" fill="white"/>
</mask>
<g mask="url(#mask0_1705_1142)">
<path d="M476.982 53.5417C476.982 57.0387 479.647 58.2885 482.228 58.2885C484.808 58.2885 487.389 57.0387 487.389 53.5417V30.5602C487.389 22.1496 483.143 15.1545 473.734 15.1545C469.986 15.1545 467.905 15.8216 465.657 17.2391C464.74 17.8218 464.241 18.321 463.825 18.321C463.491 18.321 463.158 18.321 462.826 17.5716C462.16 16.1561 460.741 15.1565 458.16 15.1565C455.579 15.1565 452.914 16.4063 452.914 19.9033V53.5417C452.914 57.0387 455.579 58.2885 458.16 58.2885C460.741 58.2885 463.322 57.0387 463.322 53.5417V32.7252C463.322 24.9826 469.317 24.7315 470.15 24.7315C476.982 24.7315 476.982 30.2267 476.982 34.224V53.5417ZM433.184 31.809C433.184 32.2249 433.018 32.475 432.601 32.475H420.111C419.777 32.475 419.528 32.3083 419.528 31.7256C419.611 27.5625 421.943 24.398 426.278 24.398C431.024 24.398 433.189 27.6459 433.189 31.809M419.449 41.4683C419.443 41.3577 419.46 41.2471 419.499 41.1436C419.539 41.04 419.599 40.946 419.677 40.8675C419.756 40.7891 419.849 40.7281 419.953 40.6884C420.056 40.6488 420.167 40.6314 420.277 40.6374H438.43C443.009 40.6374 443.426 37.4729 443.426 34.3918C443.426 22.5675 438.847 15.1565 426.273 15.1565C412.117 15.1565 408.619 24.1508 408.619 36.7235C408.619 49.9632 412.45 58.2905 426.685 58.2905C431.988 58.4572 437.181 56.7459 441.346 53.4583C441.841 53.0881 442.248 52.612 442.536 52.0647C442.824 51.5174 442.986 50.9127 443.011 50.2948C443.011 47.7963 440.763 44.882 437.932 44.882C436.613 44.9363 435.35 45.4344 434.349 46.2955C432.139 47.6383 429.608 48.3585 427.022 48.38C421.277 48.38 419.695 45.7991 419.445 41.4693M385.137 14.9064C385.137 15.5724 384.888 15.7392 384.388 15.7392H382.64C379.143 15.7392 377.894 17.8237 377.894 20.4046C377.894 23.0688 379.143 25.07 382.64 25.07H384.388C384.884 25.07 385.137 25.4035 385.137 25.9862V44.7152C385.137 52.8756 387.969 58.2885 396.878 58.2885C402.207 58.2885 403.623 55.9568 403.623 53.1268C403.623 50.2968 402.124 48.38 398.794 48.38C396.379 48.38 395.546 46.9645 395.546 44.7162V25.8135C395.546 25.3975 395.629 25.064 396.295 25.064H398.961C402.458 25.064 403.626 23.0658 403.626 20.3986C403.626 17.8178 402.46 15.7333 398.961 15.7333H396.296C395.63 15.7333 395.547 15.5665 395.547 14.9838V8.23886C395.547 4.74181 392.883 3.49308 390.301 3.49308C387.719 3.49308 385.139 4.74181 385.139 8.23886L385.137 14.9064ZM351.249 53.5417C351.249 57.0387 353.913 58.2885 356.495 58.2885C359.076 58.2885 361.656 57.0387 361.656 53.5417V32.8085C361.656 25.7301 365.902 25.5623 367.901 25.5623C369.151 25.5623 369.4 25.6447 371.815 25.6447C373.73 25.6447 375.811 24.4793 375.811 20.7322C375.811 16.5681 373.727 15.1526 369.4 15.1526C367.538 15.1778 365.732 15.7899 364.238 16.9016C363.073 17.7344 362.323 18.5672 361.906 18.5672C361.741 18.5672 361.657 18.4838 361.573 18.3171C361.173 17.3184 360.464 16.4733 359.551 15.9042C358.638 15.3352 357.568 15.0719 356.495 15.1526C353.914 15.1526 351.249 16.4023 351.249 19.8993V53.5417ZM331.515 31.809C331.515 32.2249 331.348 32.475 330.932 32.475H318.441C318.108 32.475 317.858 32.3083 317.858 31.7256C317.943 27.5625 320.273 24.398 324.603 24.398C329.349 24.398 331.515 27.6459 331.515 31.809ZM317.776 41.4683C317.769 41.3572 317.786 41.246 317.825 41.1419C317.865 41.0379 317.926 40.9434 318.004 40.8646C318.083 40.7859 318.177 40.7248 318.281 40.6853C318.385 40.6458 318.497 40.6288 318.608 40.6355H336.76C341.34 40.6355 341.757 37.4709 341.757 34.3898C341.757 22.5655 337.177 15.1545 324.603 15.1545C310.447 15.1545 306.95 24.1488 306.95 36.7215C306.95 49.9613 310.781 58.2885 325.016 58.2885C330.319 58.4554 335.51 56.7448 339.674 53.4583C340.17 53.0882 340.577 52.6122 340.865 52.0649C341.153 51.5176 341.315 50.9128 341.34 50.2948C341.34 47.7963 339.092 44.882 336.261 44.882C334.942 44.9368 333.681 45.4348 332.68 46.2955C330.47 47.6383 327.939 48.3586 325.353 48.38C319.607 48.38 318.025 45.7982 317.776 41.4683ZM281.721 48.38C275.059 48.38 274.976 41.4693 274.976 36.7225C274.976 31.393 275.059 25.065 281.721 25.065C287.716 25.065 288.798 29.4783 288.798 36.7225C288.798 43.9667 287.885 48.38 281.721 48.38ZM284.136 15.1555C281.723 15.1309 279.355 15.7956 277.307 17.0713C276.391 17.654 275.892 18.3201 275.476 18.3201C275.142 18.3201 274.809 18.3201 274.476 17.5706C273.81 16.1551 272.392 15.1555 269.811 15.1555C267.23 15.1555 264.566 16.4053 264.566 19.9023V69.6958C264.566 73.2763 267.23 74.4426 269.811 74.4426C272.392 74.4426 274.973 73.2763 274.973 69.6958V56.4561C274.973 55.4575 275.639 55.3741 275.972 55.3741C276.388 55.3741 276.888 56.0402 277.804 56.6228C279.722 57.7433 281.911 58.3192 284.133 58.2885C295.54 58.2885 299.454 49.0461 299.454 36.7215C299.454 24.397 295.54 15.1545 284.133 15.1545M174.806 0C171.891 0 170.06 1.74902 170.06 4.91354V53.0454C170.06 56.2099 171.891 57.9579 174.806 57.9579H203.617C207.031 57.9579 208.282 55.3771 208.282 52.7962C208.282 50.132 207.034 47.4668 203.617 47.4668H181.634C181.051 47.4668 180.885 47.3 180.885 46.7173V34.0612C180.885 33.4776 181.051 33.3118 181.634 33.3118H199.62C203.034 33.3118 204.285 30.6466 204.285 28.0657C204.285 25.4015 203.036 22.8197 199.62 22.8197H181.634C181.051 22.8197 180.885 22.6529 180.885 22.0702V11.2505C180.885 10.6678 181.051 10.5011 181.634 10.5011H202.784C206.198 10.5011 207.45 7.83685 207.45 5.255C207.45 2.58978 206.201 0.00893259 202.784 0.00893259L174.806 0ZM136.17 44.9663C135.48 44.5092 134.665 44.2766 133.838 44.3003C132.475 44.4252 131.2 45.0291 130.24 46.0048C129.279 46.9804 128.696 48.2647 128.593 49.6297C128.596 50.2669 128.739 50.8956 129.012 51.4711C129.285 52.0467 129.682 52.555 130.174 52.96C133.088 55.8744 137.668 58.2895 144.746 58.2895C154.072 58.2895 160.484 53.5427 160.484 45.3852C160.484 39.1406 156.82 35.5581 148.993 32.6448L143.914 30.731C142.332 30.1473 140.083 29.3145 140.083 27.6538C140.083 25.8214 142.082 25.0729 144.749 25.0729C146.768 25.143 148.751 25.6246 150.578 26.4884C151.575 26.9507 152.646 27.2327 153.742 27.3213C156.657 27.3213 158.571 24.3235 158.571 22.0752C158.607 21.3284 158.44 20.5859 158.089 19.9262C157.737 19.2665 157.213 18.7143 156.573 18.328C153.909 16.3298 149.912 15.1635 144.749 15.1635C135.922 15.1635 129.428 19.8289 129.428 27.6548C129.428 33.4825 133.258 37.3965 140.586 39.9783L145.747 41.8098C148.825 42.8927 149.828 43.9747 149.828 45.3078C149.828 47.0558 148.163 48.385 144.748 48.385C141.251 48.385 137.998 46.3004 136.172 44.9713M97.6186 44.9713C96.9286 44.5142 96.1142 44.2816 95.2869 44.3052C93.9236 44.4302 92.6487 45.034 91.6883 46.0096C90.7279 46.9853 90.1442 48.2696 90.0408 49.6347C90.0446 50.2707 90.1881 50.8982 90.4612 51.4726C90.7343 52.0471 91.1302 52.5545 91.6211 52.959C94.5355 55.8734 99.1155 58.2885 106.193 58.2885C115.524 58.2885 121.931 53.5417 121.931 45.3842C121.931 39.1396 118.267 35.5572 110.44 32.6438L105.36 30.73C103.778 30.1463 101.53 29.3135 101.53 27.6528C101.53 25.8204 103.529 25.072 106.195 25.072C108.214 25.1421 110.197 25.6238 112.024 26.4875C113.021 26.9497 114.093 27.2317 115.188 27.3203C118.103 27.3203 120.017 24.3225 120.017 22.0742C120.053 21.3274 119.887 20.5849 119.535 19.9252C119.183 19.2655 118.659 18.7133 118.019 18.327C115.355 16.3288 111.358 15.1625 106.195 15.1625C97.3685 15.1625 90.8737 19.8279 90.8737 27.6538C90.8737 33.4815 94.7043 37.3955 102.032 39.9773L107.194 41.8088C110.271 42.8917 111.273 43.9737 111.273 45.3068C111.273 47.0548 109.609 48.384 106.194 48.384C102.697 48.384 99.4491 46.2994 97.6176 44.9703M69.9728 40.8072C70.0963 40.7937 70.2213 40.8081 70.3385 40.8493C70.4557 40.8905 70.5622 40.9575 70.6501 41.0453C70.738 41.1331 70.8051 41.2395 70.8464 41.3567C70.8878 41.4739 70.9023 41.5989 70.889 41.7224V42.8887C70.889 46.219 68.3081 48.9666 63.3946 48.9666C59.4806 48.9666 57.815 47.5511 57.815 44.6368C57.815 41.3899 61.3964 40.8072 65.226 40.8072H69.9728ZM72.8872 54.6296C73.5493 55.7785 74.511 56.7261 75.6695 57.3714C76.828 58.0166 78.1399 58.3353 79.4653 58.2934C84.5446 58.2934 86.1269 56.461 86.1269 53.1317C86.1269 50.2174 84.5446 48.4664 82.4631 48.4664C81.3811 48.4664 81.0476 47.97 81.0476 46.7173V33.8131C81.0476 22.4891 78.1332 15.1605 64.3108 15.1605C59.5486 15.0678 54.8811 16.4974 50.9876 19.2412C50.3211 19.6392 49.7657 20.1989 49.3727 20.8684C48.9797 21.538 48.7619 22.2958 48.7393 23.0718C48.8568 24.3793 49.4297 25.6041 50.358 26.5324C51.2863 27.4607 52.5111 28.0336 53.8186 28.1511C54.7183 28.1433 55.5926 27.8519 56.3171 27.3183C58.5608 25.6178 61.3322 24.7627 64.144 24.9032C68.8094 24.9032 70.8939 26.7356 70.8939 30.6486V31.398C70.9095 31.5149 70.8993 31.6338 70.8641 31.7463C70.829 31.8588 70.7697 31.9623 70.6904 32.0496C70.6111 32.1368 70.5137 32.2057 70.405 32.2514C70.2963 32.2971 70.1789 32.3186 70.0611 32.3142H64.4825C56.4045 32.3142 47.0787 34.9784 47.0787 45.6373C47.0787 51.5495 50.3265 58.2944 60.6519 58.2944C64.3981 58.2944 67.9795 57.4616 70.7272 54.7974C71.3098 54.2147 71.56 53.9646 71.9759 53.9646C72.3094 53.9646 72.5596 54.1303 72.8921 54.6306M26.4249 37.2208C35.9175 37.2208 43.5786 31.2253 43.5786 18.6526C43.5786 5.99551 35.9175 0 26.4249 0H6.0243C3.10992 0 1.27851 1.74902 1.27851 4.91354V53.7085C1.27851 57.3723 4.19288 58.2885 6.69034 58.2885C9.27119 58.2885 12.1032 57.3723 12.1032 53.7085V37.9702C12.1032 37.3876 12.2699 37.2208 12.8526 37.2208H26.4249ZM12.8526 26.813C12.2699 26.813 12.1032 26.6463 12.1032 26.0626V11.1562C12.1032 10.5735 12.2699 10.4068 12.8526 10.4068H26.009C29.8396 10.4068 32.337 13.1544 32.337 18.6506C32.337 24.1468 29.8396 26.811 26.009 26.811L12.8526 26.813Z" fill="#302677"/>
<path d="M228.833 86.5249C228.809 86.6895 228.824 86.8572 228.877 87.0149C228.93 87.1726 229.018 87.3158 229.136 87.4334C229.253 87.5509 229.396 87.6394 229.554 87.6919C229.712 87.7445 229.879 87.7595 230.044 87.736H231.475C231.64 87.7596 231.808 87.7445 231.965 87.692C232.123 87.6395 232.266 87.5509 232.384 87.4334C232.501 87.3158 232.589 87.1725 232.642 87.0148C232.694 86.8571 232.709 86.6894 232.685 86.5249V81.2848L237.068 73.443C237.184 73.2979 237.258 73.1227 237.279 72.9377C237.3 72.7528 237.269 72.5656 237.188 72.3978C237.078 72.2515 236.932 72.1368 236.764 72.0652C236.596 71.9936 236.412 71.9676 236.23 71.9898H234.491C234.191 71.9752 233.895 72.0544 233.642 72.2163C233.39 72.3782 233.194 72.6148 233.082 72.8931L231.739 75.7717C231.607 76.051 231.486 76.3227 231.376 76.5867C231.266 76.8507 231.168 77.0929 231.078 77.3133C230.975 77.578 230.879 77.8202 230.791 78.0399H230.749C230.661 77.8195 230.565 77.5773 230.462 77.3133C230.375 77.0929 230.271 76.8507 230.154 76.5867C230.037 76.3227 229.919 76.0507 229.802 75.7717L228.436 72.8971C228.324 72.6187 228.128 72.3821 227.875 72.2202C227.623 72.0583 227.326 71.9791 227.026 71.9938H225.288C225.107 71.9716 224.923 71.9977 224.755 72.0693C224.586 72.1409 224.44 72.2556 224.33 72.4017C224.25 72.5696 224.219 72.7569 224.24 72.9419C224.261 73.1268 224.335 73.3019 224.451 73.447L228.833 81.2848V86.5249ZM206.024 86.5249C206.001 86.6895 206.016 86.8572 206.068 87.0149C206.121 87.1726 206.209 87.3158 206.327 87.4334C206.444 87.5509 206.588 87.6394 206.745 87.6919C206.903 87.7445 207.071 87.7595 207.235 87.736H208.666C208.83 87.759 208.997 87.7436 209.155 87.6908C209.312 87.6381 209.455 87.5495 209.572 87.432C209.689 87.3145 209.777 87.1715 209.83 87.014C209.882 86.8566 209.897 86.6892 209.874 86.5249V80.4044C209.874 80.1555 209.866 79.8766 209.852 79.5676C209.837 79.2585 209.815 78.965 209.786 78.6871C209.757 78.3645 209.727 78.0409 209.698 77.7183H209.742C209.865 78.0409 210.005 78.3569 210.161 78.6653C210.278 78.9445 210.417 79.2423 210.578 79.5586C210.725 79.8493 210.887 80.1323 211.063 80.4063L214.963 86.922C215.099 87.18 215.306 87.3937 215.56 87.5381C215.813 87.6825 216.103 87.7515 216.394 87.737H218.112C218.276 87.7604 218.444 87.7452 218.601 87.6925C218.759 87.6399 218.902 87.5512 219.02 87.4336C219.137 87.316 219.226 87.1726 219.278 87.0149C219.33 86.8572 219.345 86.6894 219.322 86.5249V73.2048C219.345 73.0404 219.33 72.8727 219.278 72.7151C219.225 72.5575 219.137 72.4143 219.019 72.2968C218.902 72.1793 218.759 72.0908 218.601 72.0382C218.444 71.9856 218.276 71.9704 218.112 71.9938H216.68C216.516 71.9704 216.348 71.9856 216.19 72.0382C216.033 72.0908 215.89 72.1794 215.772 72.2968C215.655 72.4143 215.566 72.5575 215.514 72.7151C215.461 72.8727 215.446 73.0403 215.469 73.2048V79.3472C215.469 79.5974 215.476 79.8766 215.491 80.185C215.506 80.4927 215.528 80.7865 215.557 81.0645C215.586 81.3881 215.616 81.7107 215.645 82.0343H215.601C215.454 81.7259 215.308 81.4102 215.161 81.0873C215.029 80.8087 214.889 80.5152 214.743 80.2068C214.603 79.9126 214.449 79.6257 214.281 79.3472L210.41 72.8087C210.27 72.549 210.059 72.3344 209.801 72.1901C209.544 72.0458 209.251 71.9777 208.956 71.9938H207.239C207.075 71.9702 206.907 71.9853 206.749 72.0378C206.592 72.0903 206.448 72.1789 206.331 72.2964C206.213 72.4139 206.125 72.5572 206.072 72.7148C206.02 72.8725 206.005 73.0403 206.028 73.2048L206.024 86.5249ZM192.44 81.3513L193.342 78.291C193.416 78.0409 193.486 77.762 193.552 77.4543C193.617 77.1465 193.688 76.8527 193.761 76.5738C193.835 76.2509 193.908 75.92 193.982 75.5812H194.025C194.099 75.9187 194.172 76.2495 194.246 76.5738C194.319 76.8527 194.389 77.1455 194.454 77.4543C194.52 77.763 194.59 78.0409 194.664 78.291L195.544 81.3513H192.44ZM187.091 86.3493C187.014 86.5089 186.979 86.6852 186.988 86.8621C186.997 87.0389 187.05 87.2107 187.142 87.3617C187.256 87.4951 187.401 87.5989 187.564 87.664C187.727 87.7292 187.903 87.7539 188.077 87.736H189.531C189.84 87.7609 190.148 87.6716 190.396 87.4851C190.644 87.2985 190.815 87.0276 190.877 86.7235L191.538 84.4335H196.447L197.107 86.7235C197.18 87.0254 197.357 87.2922 197.606 87.4773C197.856 87.6624 198.162 87.7539 198.472 87.736H199.925C200.1 87.7541 200.277 87.7295 200.44 87.6643C200.603 87.5991 200.747 87.4953 200.862 87.3617C200.954 87.2109 201.008 87.0393 201.018 86.8624C201.027 86.6856 200.992 86.5092 200.916 86.3493L196.359 72.9854C196.283 72.6867 196.105 72.424 195.856 72.2428C195.606 72.0615 195.302 71.9731 194.994 71.9928H193.009C192.701 71.9732 192.396 72.0617 192.147 72.2429C191.898 72.4242 191.719 72.6868 191.643 72.9854L187.091 86.3493ZM165.514 86.4813C165.49 86.6447 165.5 86.8113 165.544 86.9706C165.587 87.1298 165.664 87.2782 165.768 87.4064C165.884 87.5225 166.024 87.612 166.179 87.6689C166.333 87.7258 166.497 87.7486 166.661 87.736H168.115C168.276 87.7526 168.439 87.7346 168.593 87.683C168.746 87.6314 168.887 87.5475 169.006 87.4369C169.125 87.3263 169.218 87.1916 169.281 87.0419C169.343 86.8921 169.372 86.7307 169.367 86.5686L169.764 80.6466C169.794 80.3431 169.805 80.0381 169.797 79.7333C169.789 79.4177 169.786 79.1378 169.786 78.8856C169.772 78.5878 169.764 78.298 169.764 78.0052H169.809C169.912 78.3274 170.014 78.6428 170.117 78.9511C170.205 79.2152 170.3 79.5011 170.403 79.8108C170.505 80.1205 170.601 80.3974 170.689 80.6466L171.988 84.2349C172.075 84.5304 172.26 84.7874 172.512 84.9637C172.765 85.1399 173.07 85.225 173.377 85.2047H174.61C174.918 85.2248 175.223 85.1397 175.475 84.9634C175.728 84.7872 175.913 84.5303 176 84.2349L177.299 80.6466C177.387 80.3977 177.482 80.1191 177.585 79.8108C177.685 79.5011 177.784 79.2152 177.871 78.9511C177.974 78.6434 178.077 78.3281 178.18 78.0052H178.224C178.194 78.2977 178.18 78.5916 178.18 78.8856C178.165 79.1345 178.162 79.417 178.169 79.7333C178.176 80.0497 178.194 80.3541 178.224 80.6466L178.621 86.5686C178.616 86.7303 178.645 86.8912 178.707 87.0406C178.769 87.19 178.863 87.3244 178.981 87.4349C179.099 87.5454 179.239 87.6294 179.393 87.6813C179.546 87.7332 179.708 87.7518 179.869 87.736H181.3C181.464 87.7484 181.628 87.7255 181.782 87.6686C181.936 87.6117 182.077 87.5223 182.193 87.4064C182.297 87.2779 182.372 87.1294 182.416 86.9702C182.459 86.811 182.469 86.6445 182.445 86.4813L181.367 73.1611C181.372 72.9988 181.343 72.8372 181.28 72.6873C181.218 72.5374 181.124 72.4026 181.005 72.292C180.886 72.1814 180.744 72.0975 180.59 72.0461C180.436 71.9947 180.273 71.9768 180.111 71.9938H178.126C177.819 71.9743 177.514 72.0628 177.265 72.244C177.016 72.4252 176.838 72.6878 176.761 72.9864L174.802 78.6444C174.714 78.8946 174.622 79.1685 174.527 79.4703C174.432 79.7721 174.347 80.053 174.274 80.318C174.185 80.6257 174.098 80.9334 174.01 81.2421H173.966L173.701 80.318C173.628 80.053 173.543 79.7711 173.448 79.4703C173.353 79.1695 173.26 78.8946 173.173 78.6444L171.214 72.9864C171.137 72.6878 170.959 72.4252 170.71 72.244C170.461 72.0628 170.156 71.9743 169.849 71.9938H167.863C167.702 71.9768 167.539 71.9947 167.385 72.0461C167.231 72.0975 167.089 72.1814 166.97 72.292C166.852 72.4026 166.758 72.5374 166.695 72.6873C166.633 72.8373 166.603 72.9988 166.609 73.1611L165.514 86.4813ZM152.436 79.1278V75.2963H153.735C154.229 75.2742 154.723 75.3491 155.188 75.5166C155.348 75.5702 155.496 75.6552 155.623 75.7667C155.749 75.8782 155.853 76.0139 155.926 76.1658C156.059 76.492 156.123 76.8421 156.114 77.1942C156.132 77.4582 156.093 77.7231 156.001 77.971C155.908 78.2189 155.763 78.4441 155.577 78.6315C155.171 78.9792 154.646 79.157 154.112 79.1278H152.436ZM148.583 86.5249C148.56 86.6894 148.575 86.8571 148.627 87.0148C148.679 87.1725 148.768 87.3158 148.885 87.4334C149.003 87.5509 149.146 87.6395 149.304 87.692C149.461 87.7445 149.629 87.7596 149.793 87.736H151.225C151.389 87.7595 151.557 87.7445 151.715 87.6919C151.872 87.6394 152.016 87.5509 152.133 87.4334C152.251 87.3158 152.339 87.1726 152.392 87.0149C152.444 86.8572 152.459 86.6895 152.436 86.5249V82.4303H154.241L156.575 86.8773C156.707 87.142 156.912 87.3634 157.166 87.5155C157.419 87.6677 157.711 87.7441 158.007 87.736H159.68C159.862 87.7588 160.046 87.7332 160.214 87.6617C160.383 87.5902 160.529 87.4754 160.639 87.329C160.72 87.161 160.751 86.9735 160.73 86.7884C160.708 86.6032 160.635 86.4279 160.518 86.2827L158.273 82.2318C158.173 82.071 158.086 81.9271 158.019 81.802C157.966 81.6977 157.903 81.5981 157.833 81.5042C157.773 81.4159 157.723 81.3424 157.678 81.2838V81.2402C158.068 81.0545 158.419 80.7965 158.712 80.4798C159.006 80.1645 159.254 79.8092 159.448 79.4246C159.644 79.0404 159.792 78.6337 159.889 78.2136C159.983 77.7983 160.03 77.3738 160.03 76.948C160.065 75.9265 159.793 74.9181 159.249 74.0525C158.741 73.2764 157.996 72.6848 157.125 72.365C156.745 72.2226 156.35 72.1266 155.947 72.0791C155.321 72.0112 154.691 71.9817 154.061 71.9908H149.792C149.628 71.9674 149.46 71.9826 149.303 72.0352C149.145 72.0878 149.002 72.1764 148.885 72.2938C148.767 72.4113 148.679 72.5546 148.626 72.7122C148.574 72.8697 148.559 73.0374 148.582 73.2018L148.583 86.5249ZM132.951 86.5249C132.928 86.6895 132.943 86.8572 132.995 87.0149C133.048 87.1726 133.137 87.3158 133.254 87.4334C133.372 87.5509 133.515 87.6394 133.673 87.6919C133.83 87.7445 133.998 87.7595 134.162 87.736H141.912C142.076 87.7595 142.244 87.7445 142.402 87.6919C142.56 87.6394 142.703 87.5509 142.82 87.4334C142.938 87.3158 143.026 87.1726 143.079 87.0149C143.131 86.8572 143.147 86.6895 143.123 86.5249V85.6445C143.147 85.48 143.131 85.3122 143.079 85.1545C143.026 84.9969 142.938 84.8536 142.82 84.7361C142.703 84.6185 142.56 84.53 142.402 84.4775C142.244 84.425 142.076 84.4099 141.912 84.4335H136.804V81.4556H140.389C140.554 81.4791 140.721 81.464 140.879 81.4116C141.037 81.3591 141.18 81.2707 141.297 81.1533C141.415 81.0359 141.503 80.8927 141.556 80.7352C141.608 80.5776 141.624 80.41 141.6 80.2455V79.3641C141.623 79.2 141.607 79.033 141.554 78.8761C141.501 78.7192 141.412 78.5767 141.295 78.4599C141.178 78.3431 141.035 78.2551 140.878 78.2029C140.72 78.1507 140.553 78.1357 140.389 78.159H136.8V75.2963H141.6C141.765 75.3198 141.933 75.3048 142.09 75.2522C142.248 75.1997 142.391 75.1112 142.509 74.9937C142.626 74.8762 142.715 74.7329 142.767 74.5752C142.82 74.4175 142.835 74.2498 142.811 74.0853V73.2048C142.835 73.0403 142.819 72.8727 142.767 72.7151C142.714 72.5575 142.626 72.4143 142.508 72.2968C142.391 72.1794 142.248 72.0908 142.09 72.0382C141.932 71.9856 141.765 71.9704 141.6 71.9938H134.156C133.991 71.9704 133.823 71.9856 133.666 72.0382C133.508 72.0908 133.365 72.1794 133.248 72.2968C133.13 72.4143 133.042 72.5575 132.989 72.7151C132.936 72.8727 132.921 73.0403 132.945 73.2048L132.951 86.5249ZM112.762 83.3108C113.157 84.2628 113.742 85.1244 114.482 85.843C115.198 86.5304 116.04 87.0722 116.963 87.4382C117.89 87.8116 118.88 88.0024 119.879 88C120.5 88.0106 121.119 87.9364 121.719 87.7796C122.169 87.6593 122.605 87.4898 123.018 87.2744C123.399 87.0769 123.75 86.8244 124.057 86.5249H124.101C124.093 86.534 124.087 86.5445 124.083 86.556C124.08 86.5674 124.078 86.5795 124.079 86.5915V86.79C124.078 86.9179 124.105 87.0445 124.158 87.1607C124.212 87.2769 124.29 87.3798 124.388 87.462C124.644 87.6623 124.966 87.7603 125.29 87.737H126.017C126.181 87.7606 126.349 87.7455 126.507 87.693C126.665 87.6404 126.808 87.5517 126.926 87.4341C127.043 87.3164 127.131 87.173 127.184 87.0152C127.236 86.8573 127.251 86.6895 127.227 86.5249V80.052C127.25 79.8876 127.235 79.7199 127.183 79.5623C127.13 79.4047 127.042 79.2615 126.925 79.144C126.807 79.0265 126.664 78.938 126.507 78.8854C126.349 78.8328 126.181 78.8176 126.017 78.841H122.803C122.638 78.8174 122.47 78.8325 122.313 78.8851C122.155 78.9376 122.012 79.0261 121.894 79.1436C121.777 79.2611 121.688 79.4043 121.635 79.562C121.583 79.7196 121.567 79.8874 121.591 80.052V80.9106C121.567 81.0752 121.583 81.2429 121.635 81.4006C121.688 81.5583 121.777 81.7015 121.894 81.819C122.012 81.9365 122.155 82.025 122.313 82.0775C122.47 82.1301 122.638 82.1452 122.803 82.1216H123.815V83.2006C123.599 83.4588 123.338 83.6751 123.044 83.8389C122.725 84.0248 122.386 84.1727 122.032 84.2796C121.561 84.4202 121.071 84.4872 120.579 84.4781C119.991 84.4806 119.407 84.3687 118.861 84.1486C118.327 83.9346 117.844 83.6121 117.442 83.2016C117.026 82.7722 116.697 82.2666 116.473 81.7127C116.222 81.0866 116.098 80.4167 116.109 79.7423C116.107 79.1667 116.196 78.5945 116.373 78.0469C116.545 77.5137 116.826 77.0224 117.198 76.6046C117.59 76.1742 118.071 75.8353 118.608 75.6119C119.255 75.3544 119.948 75.2308 120.645 75.2486C121.223 75.2323 121.8 75.3142 122.351 75.4908C122.77 75.6399 123.178 75.8163 123.573 76.0189C123.861 76.1919 124.195 76.2726 124.53 76.2502C124.684 76.2178 124.829 76.1503 124.953 76.0528C125.077 75.9554 125.177 75.8307 125.246 75.6884L125.818 74.7861C126.004 74.5234 126.094 74.2047 126.072 73.8838C126.034 73.7244 125.965 73.5741 125.868 73.4419C125.772 73.3096 125.65 73.1979 125.51 73.1135C125.282 72.9565 125.043 72.8165 124.795 72.6946C124.43 72.5132 124.05 72.3624 123.66 72.2439C123.172 72.0922 122.675 71.9706 122.171 71.8796C121.587 71.7742 120.994 71.7227 120.4 71.7258C119.262 71.7138 118.133 71.9232 117.075 72.3422C116.097 72.7306 115.206 73.3108 114.455 74.0485C113.712 74.7888 113.127 75.6727 112.737 76.6463C112.318 77.7002 112.108 78.8262 112.121 79.9607C112.105 81.1078 112.322 82.2462 112.759 83.3068M84.494 86.5249C84.4705 86.6895 84.4855 86.8572 84.5381 87.0149C84.5906 87.1726 84.6791 87.3158 84.7966 87.4334C84.9141 87.5509 85.0574 87.6394 85.2151 87.6919C85.3728 87.7445 85.5405 87.7595 85.705 87.736H87.1364C87.3009 87.7594 87.4685 87.7442 87.626 87.6916C87.7836 87.639 87.9267 87.5504 88.0441 87.4329C88.1615 87.3154 88.25 87.1722 88.3024 87.0146C88.3549 86.857 88.37 86.6894 88.3464 86.5249V80.4044C88.3464 80.1555 88.3392 79.8766 88.3246 79.5676C88.31 79.2585 88.2879 78.965 88.2581 78.6871C88.2293 78.3645 88.1995 78.0409 88.1708 77.7183H88.2144C88.3315 78.0267 88.4709 78.3423 88.6323 78.6653C88.7508 78.9445 88.8904 79.2423 89.0512 79.5586C89.198 79.8494 89.3597 80.1323 89.5356 80.4063L93.4377 86.922C93.5739 87.18 93.781 87.3937 94.0346 87.5381C94.2881 87.6825 94.5776 87.7515 94.869 87.737H96.5863C96.7505 87.7598 96.9177 87.744 97.0748 87.6911C97.2319 87.6381 97.3745 87.5494 97.4914 87.4318C97.6083 87.3143 97.6962 87.1711 97.7483 87.0137C97.8004 86.8563 97.8151 86.689 97.7913 86.5249V73.2048C97.8149 73.0404 97.7998 72.8727 97.7474 72.7151C97.6949 72.5575 97.6065 72.4143 97.4891 72.2968C97.3717 72.1793 97.2285 72.0908 97.071 72.0382C96.9134 71.9856 96.7458 71.9704 96.5813 71.9938H95.15C94.9855 71.9704 94.8178 71.9856 94.6602 72.0382C94.5027 72.0908 94.3595 72.1794 94.242 72.2968C94.1245 72.4143 94.036 72.5575 93.9834 72.7151C93.9308 72.8727 93.9156 73.0403 93.9389 73.2048V79.3472C93.9389 79.5974 93.9462 79.8766 93.9608 80.185C93.9757 80.4927 93.9975 80.7865 94.0263 81.0645C94.0561 81.3881 94.0858 81.7107 94.1146 82.0343H94.071C93.9241 81.7259 93.7771 81.4102 93.6302 81.0873L93.2123 80.2068C93.0734 79.9124 92.919 79.6254 92.7498 79.3472L88.8785 72.8087C88.7386 72.549 88.5276 72.3344 88.2703 72.1901C88.013 72.0458 87.7199 71.9777 87.4253 71.9938H85.708C85.5435 71.9704 85.3759 71.9856 85.2183 72.0382C85.0607 72.0908 84.9175 72.1794 84.8001 72.2968C84.6826 72.4143 84.5941 72.5575 84.5415 72.7151C84.4889 72.8727 84.4736 73.0403 84.497 73.2048L84.494 86.5249ZM74.3007 86.5249C74.2771 86.6895 74.2922 86.8572 74.3447 87.0149C74.3972 87.1726 74.4857 87.3158 74.6033 87.4334C74.7208 87.5509 74.8641 87.6394 75.0217 87.6919C75.1794 87.7445 75.3472 87.7595 75.5117 87.736H76.9421C77.1064 87.7592 77.2739 87.7439 77.4314 87.6912C77.5888 87.6385 77.7318 87.5499 77.8491 87.4325C77.9664 87.315 78.0547 87.1718 78.1071 87.0143C78.1595 86.8568 78.1746 86.6893 78.1511 86.5249V73.2048C78.1745 73.0403 78.1592 72.8727 78.1066 72.7151C78.054 72.5575 77.9655 72.4143 77.848 72.2968C77.7306 72.1794 77.5874 72.0908 77.4298 72.0382C77.2722 71.9856 77.1046 71.9704 76.9401 71.9938H75.5097C75.3452 71.9702 75.1774 71.9853 75.0198 72.0378C74.8621 72.0903 74.7188 72.1789 74.6013 72.2964C74.4838 72.4139 74.3952 72.5572 74.3427 72.7148C74.2902 72.8725 74.2751 73.0403 74.2987 73.2048L74.3007 86.5249ZM52.1302 86.5249C52.1066 86.6894 52.1217 86.857 52.1742 87.0146C52.2266 87.1722 52.3151 87.3154 52.4325 87.4329C52.5499 87.5504 52.693 87.639 52.8506 87.6916C53.0081 87.7442 53.1758 87.7594 53.3402 87.736H54.7716C54.9361 87.7595 55.1038 87.7445 55.2615 87.6919C55.4192 87.6394 55.5625 87.5509 55.68 87.4334C55.7975 87.3158 55.886 87.1726 55.9386 87.0149C55.9911 86.8572 56.0062 86.6895 55.9826 86.5249V81.2848L60.3641 73.443C60.4802 73.2977 60.5531 73.1226 60.5745 72.9378C60.5959 72.753 60.565 72.5658 60.4852 72.3978C60.3754 72.2516 60.2291 72.137 60.0609 72.0653C59.8928 71.9937 59.7087 71.9677 59.5273 71.9898H57.7882C57.4885 71.9752 57.1917 72.0543 56.9391 72.2162C56.6864 72.3781 56.4906 72.6147 56.3787 72.8931L55.0356 75.7717C54.9033 76.051 54.7825 76.3227 54.6733 76.5867C54.5641 76.8507 54.4649 77.0929 54.3755 77.3133C54.2723 77.578 54.177 77.8202 54.0896 78.0399H54.045C53.9576 77.8195 53.8613 77.5773 53.7591 77.3133C53.6707 77.0929 53.5685 76.8507 53.4504 76.5867C53.3323 76.3227 53.2151 76.0507 53.098 75.7717L51.7331 72.8931C51.6214 72.6148 51.4257 72.3782 51.1732 72.2163C50.9208 72.0544 50.6241 71.9752 50.3246 71.9898H48.5855C48.404 71.9675 48.2199 71.9934 48.0517 72.065C47.8835 72.1367 47.7372 72.2515 47.6276 72.3978C47.547 72.5656 47.5155 72.7528 47.5367 72.9377C47.558 73.1227 47.6311 73.2979 47.7477 73.443L52.1302 81.2848V86.5249ZM36.4098 81.3513L37.3131 78.291C37.3853 78.0409 37.4547 77.762 37.5216 77.4543C37.5871 77.1455 37.6576 76.8527 37.731 76.5738C37.8045 76.2512 37.8769 75.9206 37.9514 75.5812H37.9951C38.0685 75.9187 38.141 76.2492 38.2154 76.5738C38.2879 76.8527 38.3584 77.1455 38.4249 77.4543C38.4914 77.763 38.5599 78.0409 38.6333 78.291L39.5148 81.3513H36.4098ZM31.0595 86.3493C30.9836 86.5092 30.9488 86.6857 30.9586 86.8626C30.9683 87.0394 31.0221 87.211 31.1151 87.3617C31.2291 87.4953 31.3739 87.5992 31.537 87.6644C31.7 87.7296 31.8765 87.7542 32.0512 87.736H33.5044C33.8131 87.7599 34.1199 87.6701 34.367 87.4837C34.6142 87.2972 34.7847 87.0269 34.8464 86.7235L35.5075 84.4335H40.4171L41.0772 86.7235C41.15 87.0254 41.3265 87.2922 41.576 87.4773C41.8254 87.6624 42.132 87.7539 42.4421 87.736H43.8953C44.07 87.7541 44.2464 87.7295 44.4095 87.6643C44.5725 87.5991 44.7173 87.4953 44.8313 87.3617C44.9242 87.2109 44.9779 87.0393 44.9874 86.8624C44.9969 86.6856 44.9621 86.5092 44.8859 86.3493L40.3317 72.9854C40.2555 72.6868 40.0775 72.4243 39.8283 72.243C39.5791 72.0618 39.2744 71.9733 38.9669 71.9928H36.9816C36.6742 71.9733 36.3697 72.0619 36.1206 72.2431C35.8716 72.4244 35.6937 72.6869 35.6177 72.9854L31.0595 86.3493ZM19.9827 86.5249C19.9592 86.6895 19.9742 86.8572 20.0267 87.0149C20.0793 87.1726 20.1678 87.3158 20.2853 87.4334C20.4028 87.5509 20.5461 87.6394 20.7038 87.6919C20.8615 87.7445 21.0292 87.7595 21.1937 87.736H22.6251C22.7899 87.76 22.958 87.7454 23.116 87.6931C23.2741 87.6408 23.4178 87.5523 23.5357 87.4347C23.6535 87.3172 23.7423 87.1737 23.795 87.0157C23.8477 86.8578 23.8628 86.6897 23.8391 86.5249V75.2963H27.4046C27.5692 75.3198 27.737 75.3047 27.8947 75.2522C28.0524 75.1997 28.1957 75.1112 28.3133 74.9937C28.4309 74.8762 28.5195 74.7329 28.5722 74.5753C28.6248 74.4176 28.6401 74.2498 28.6167 74.0853V73.2048C28.6401 73.0402 28.6248 72.8725 28.5722 72.7148C28.5195 72.5571 28.4309 72.4139 28.3133 72.2964C28.1957 72.1789 28.0524 72.0904 27.8947 72.0379C27.737 71.9853 27.5692 71.9702 27.4046 71.9938H16.4192C16.2546 71.9702 16.0869 71.9853 15.9292 72.0378C15.7715 72.0903 15.6283 72.1789 15.5107 72.2964C15.3932 72.4139 15.3047 72.5572 15.2522 72.7148C15.1997 72.8725 15.1846 73.0403 15.2082 73.2048V74.0853C15.1846 74.2498 15.1997 74.4175 15.2522 74.5752C15.3047 74.7329 15.3932 74.8762 15.5107 74.9937C15.6283 75.1112 15.7715 75.1997 15.9292 75.2522C16.0869 75.3048 16.2546 75.3198 16.4192 75.2963H19.9857L19.9827 86.5249ZM1.34602 86.9548C1.72211 87.1513 2.11191 87.3205 2.51237 87.461C2.97226 87.6223 3.44295 87.751 3.92092 87.8461C4.44652 87.9504 4.98122 88.002 5.51706 88C6.31993 88.0131 7.11838 87.8785 7.87259 87.6029C8.5195 87.3676 9.11257 87.0047 9.61665 86.5359C10.0798 86.0972 10.4437 85.5645 10.6837 84.9735C10.927 84.3746 11.0504 83.7338 11.047 83.0875C11.0734 82.3661 10.894 81.652 10.5299 81.0287C10.1932 80.4867 9.75507 80.0148 9.23944 79.639C8.72166 79.2632 8.15958 78.9524 7.56587 78.7139C6.96367 78.4717 6.40581 78.2401 5.89228 78.0191C5.43745 77.8325 5.00467 77.5961 4.60186 77.3143C4.44313 77.2124 4.31252 77.0724 4.22199 76.9069C4.13146 76.7415 4.0839 76.5559 4.0837 76.3673C4.08376 76.2151 4.11976 76.0649 4.18875 75.9292C4.25775 75.7935 4.35779 75.6759 4.48076 75.5861C4.87426 75.3377 5.33843 75.2254 5.80195 75.2665C6.26349 75.2576 6.72254 75.3361 7.15492 75.4978C7.54403 75.6526 7.92223 75.8164 8.2895 75.9941C8.56227 76.1472 8.87008 76.2269 9.18287 76.2254C9.46875 76.2188 9.72187 76.0024 9.94223 75.5762L10.4713 74.5419C10.6231 74.2702 10.6846 73.9574 10.647 73.6485C10.61 73.4917 10.5423 73.3439 10.4477 73.2135C10.3532 73.0832 10.2336 72.9729 10.0961 72.8891C9.56116 72.5532 8.9836 72.2904 8.37884 72.1079C7.56176 71.8422 6.70676 71.7118 5.84762 71.7218C5.09296 71.716 4.34226 71.8313 3.62411 72.0633C2.97025 72.27 2.36325 72.6028 1.83738 73.043C1.34178 73.4644 0.940628 73.9857 0.660114 74.5726C0.368699 75.1885 0.221697 75.8627 0.230305 76.544C0.204307 77.2651 0.38365 77.9787 0.747463 78.6017C1.08575 79.145 1.52356 79.6195 2.03789 80.0004C2.55579 80.3849 3.11759 80.7065 3.71146 80.9583C4.31167 81.215 4.86922 81.4572 5.38406 81.6849C5.83942 81.8789 6.27213 82.1222 6.67448 82.4105C6.83076 82.5124 6.95964 82.6512 7.0498 82.8146C7.13997 82.9779 7.18868 83.1609 7.19165 83.3475C7.19094 83.5006 7.15362 83.6513 7.08282 83.787C7.01202 83.9227 6.9098 84.0396 6.78467 84.1277C6.4088 84.37 5.96386 84.4822 5.51806 84.4474C5.19906 84.45 4.88096 84.413 4.5711 84.3372C4.29545 84.2707 4.0266 84.1786 3.76805 84.0622C3.52585 83.952 3.31242 83.8458 3.12978 83.7436C2.94713 83.6413 2.78832 83.552 2.6563 83.4795C2.37609 83.2954 2.04407 83.2063 1.70932 83.2254C1.55687 83.2588 1.41327 83.3243 1.28801 83.4174C1.16274 83.5104 1.05868 83.6291 0.982717 83.7654L0.300781 84.7581C0.173716 84.9219 0.0799677 85.1091 0.0248289 85.309C-0.0119518 85.4569 -0.0119518 85.6117 0.0248289 85.7596C0.0600517 85.8963 0.124005 86.0239 0.212432 86.1338C0.301878 86.2458 0.405288 86.3459 0.520146 86.4316C0.779917 86.6279 1.05625 86.8013 1.34602 86.9498" fill="#23bf96"/>
<path d="M223.579 38.1698L213.745 47.9581C213.212 48.4884 212.789 49.1183 212.5 49.8121C212.211 50.5058 212.061 51.2498 212.059 52.0014C212.058 52.753 212.204 53.4976 212.49 54.1926C212.776 54.8876 213.197 55.5195 213.727 56.0521C214.798 57.1273 216.252 57.7333 217.77 57.7368C219.287 57.7403 220.744 57.1411 221.82 56.0709L231.635 46.3014L223.579 38.1698Z" fill="#302677"/>
<path d="M253.223 47.8857L243.098 38.1648L235.058 46.3123L245.301 56.1394C246.364 57.1645 247.783 57.7374 249.259 57.7376C250.031 57.7387 250.795 57.5833 251.505 57.2808C252.215 56.9783 252.856 56.535 253.39 55.9776C254.441 54.8824 255.013 53.4146 254.982 51.8971C254.951 50.3796 254.318 48.9367 253.223 47.8857Z" fill="#302677"/>
<path d="M233.383 44.5316L214.551 25.7321C214.019 25.2012 213.597 24.5708 213.309 23.8767C213.02 23.1827 212.872 22.4387 212.871 21.6872C212.87 20.9357 213.017 20.1914 213.304 19.4969C213.591 18.8023 214.012 18.171 214.543 17.6391C215.615 16.5648 217.07 15.9604 218.588 15.9589C220.106 15.9574 221.563 16.559 222.637 17.6312L233.373 28.3516L256.087 5.62029C256.618 5.0889 257.249 4.66737 257.943 4.37978C258.638 4.0922 259.382 3.94417 260.133 3.94417C260.885 3.94417 261.629 4.0922 262.323 4.37978C263.017 4.66737 263.648 5.0889 264.18 5.62029C264.711 6.15162 265.133 6.78245 265.42 7.47675C265.708 8.17105 265.856 8.91523 265.856 9.66677C265.856 10.4183 265.708 11.1625 265.42 11.8568C265.133 12.5511 264.711 13.1819 264.18 13.7132L233.383 44.5316Z" fill="#23bf96"/>
</g>
</g>
<defs>
<clipPath id="clip0_1705_1142">
<rect width="487.39" height="88" fill="white"/>
</clipPath>
</defs>
</svg>
