<svg xmlns="http://www.w3.org/2000/svg" width="331" height="99" viewBox="0 0 331 99" fill="none">
    <g clip-path="url(#clip0_26_1586)">
        <mask id="mask0_26_1586" style="mask-type:luminance" maskUnits="userSpaceOnUse" x="0" y="0" width="331" height="99">
            <path d="M331 0H0V99H331V0Z" fill="white"/>
        </mask>
        <g mask="url(#mask0_26_1586)">
            <path d="M10.3294 17.153H0.556788C0.483749 17.1528 0.411385 17.167 0.343842 17.1948C0.2763 17.2226 0.214907 17.2635 0.163182 17.3151C0.111457 17.3667 0.0704175 17.428 0.0424155 17.4955C0.0144135 17.5631 -3.41529e-07 17.6354 0 17.7085L0 50.5279C-3.41529e-07 50.601 0.0144135 50.6734 0.0424155 50.7409C0.0704175 50.8084 0.111457 50.8697 0.163182 50.9213C0.214907 50.9729 0.2763 51.0138 0.343842 51.0417C0.411385 51.0695 0.483749 51.0837 0.556788 51.0835H10.3294C10.4025 51.0837 10.4748 51.0695 10.5424 51.0417C10.6099 51.0138 10.6713 50.9729 10.723 50.9213C10.7748 50.8697 10.8158 50.8084 10.8438 50.7409C10.8718 50.6734 10.8862 50.601 10.8862 50.5279V17.7085C10.8862 17.6354 10.8718 17.5631 10.8438 17.4955C10.8158 17.428 10.7748 17.3667 10.723 17.3151C10.6713 17.2635 10.6099 17.2226 10.5424 17.1948C10.4748 17.167 10.4025 17.1528 10.3294 17.153Z" fill="#002825"/>
            <path d="M213.411 29.8036C213.329 28.4145 213.138 27.034 212.839 25.6751C212.537 23.9785 211.86 22.3708 210.857 20.9696C209.855 19.5684 208.553 18.4089 207.045 17.576C202.669 15.0938 193.58 15.2569 189.009 21.0454C188.5 21.6859 188.26 21.8354 187.749 21.0029C183.845 14.6249 173.468 14.6113 169.097 19.7881C168.768 20.1806 168.442 20.5866 167.95 21.1847V17.6168C167.95 17.5437 167.935 17.4713 167.907 17.4038C167.879 17.3363 167.838 17.275 167.786 17.2234C167.735 17.1717 167.673 17.1309 167.606 17.103C167.538 17.0752 167.466 17.061 167.393 17.0612H157.63C157.557 17.061 157.485 17.0752 157.417 17.103C157.35 17.1309 157.288 17.1717 157.237 17.2234C157.185 17.275 157.144 17.3363 157.116 17.4038C157.088 17.4713 157.073 17.5437 157.073 17.6168V50.5432C157.073 50.691 157.132 50.8327 157.237 50.9372C157.341 51.0417 157.483 51.1004 157.63 51.1004H167.393C167.54 51.1004 167.682 51.0417 167.786 50.9372C167.891 50.8327 167.95 50.691 167.95 50.5432V33.82C167.923 31.7754 168.494 29.7677 169.593 28.0435C170.201 27.0745 171.089 26.3141 172.14 25.8637C173.191 25.4132 174.354 25.2941 175.475 25.5222C176.508 25.6801 177.465 26.1613 178.208 26.8968C178.952 27.6323 179.443 28.5844 179.613 29.6167C179.872 31.652 180 33.7018 179.997 35.7535V50.5449C179.997 50.6181 180.011 50.6905 180.039 50.7581C180.067 50.8257 180.108 50.8872 180.16 50.9389C180.212 50.9907 180.273 51.0317 180.341 51.0597C180.408 51.0877 180.481 51.1021 180.554 51.1021H190.316C190.389 51.1021 190.462 51.0877 190.529 51.0597C190.597 51.0317 190.658 50.9907 190.71 50.9389C190.761 50.8872 190.802 50.8257 190.83 50.7581C190.858 50.6905 190.873 50.6181 190.873 50.5449V39.1956C190.91 30.3099 192.256 28.0673 193.068 27.2042C196.035 24.0611 202.786 23.7332 202.615 34.7137V50.5415C202.615 50.6893 202.673 50.831 202.778 50.9355C202.882 51.04 203.024 51.0987 203.171 51.0987H212.934C213.082 51.0987 213.223 51.04 213.328 50.9355C213.432 50.831 213.491 50.6893 213.491 50.5415L213.411 29.8036Z" fill="#002825"/>
            <path d="M39.0261 17.0731H29.2534C29.1057 17.0731 28.9641 17.1318 28.8597 17.2363C28.7553 17.3409 28.6966 17.4826 28.6966 17.6304V50.5534C28.6964 50.6267 28.7106 50.6993 28.7385 50.7671C28.7664 50.835 28.8074 50.8966 28.8591 50.9485C28.9108 51.0004 28.9723 51.0416 29.0399 51.0698C29.1076 51.0979 29.1802 51.1123 29.2534 51.1123H39.0261C39.0992 51.1121 39.1715 51.0975 39.239 51.0693C39.3065 51.0411 39.3677 50.9998 39.4193 50.9479C39.4708 50.896 39.5116 50.8345 39.5394 50.7668C39.5672 50.6991 39.5814 50.6266 39.5811 50.5534V17.6304C39.5811 17.4826 39.5225 17.3409 39.4181 17.2363C39.3136 17.1318 39.1737 17.0731 39.0261 17.0731Z" fill="#002825"/>
            <path d="M314.716 17.102H304.417V7.87311C304.416 7.725 304.357 7.58308 304.253 7.47835C304.148 7.37362 304.006 7.31459 303.858 7.31414H294.074C293.926 7.31459 293.784 7.37362 293.679 7.47835C293.575 7.58308 293.516 7.725 293.515 7.87311V17.102H289.827C289.679 17.1025 289.537 17.1615 289.432 17.2662C289.328 17.3709 289.269 17.5129 289.268 17.661V26.3428C289.269 26.4909 289.328 26.6328 289.432 26.7376C289.537 26.8423 289.679 26.9013 289.827 26.9018H293.515V36.4161C293.472 39.3201 294.298 42.1706 295.887 44.6004C297.477 47.0302 299.757 48.9278 302.434 50.0488L302.797 50.1932C304.418 50.8078 306.138 51.121 307.871 51.1174C308.893 51.1182 309.912 51.0128 310.911 50.8031C312.135 50.5209 313.332 50.1356 314.49 49.6512C314.943 49.4813 315.222 49.2638 315.216 48.8306V40.7961C315.218 40.7029 315.197 40.6107 315.153 40.5282C315.11 40.4458 315.046 40.3757 314.968 40.3247C314.89 40.2737 314.801 40.2434 314.708 40.2367C314.615 40.23 314.522 40.2471 314.437 40.2864C313.48 40.7453 312.448 41.0257 311.39 41.1138C308.655 41.3517 304.283 40.4597 304.403 36.5367V26.8916H314.702C314.775 26.8913 314.848 26.8767 314.915 26.8485C314.982 26.8203 315.044 26.7791 315.095 26.7272C315.147 26.6752 315.188 26.6137 315.215 26.546C315.243 26.4783 315.257 26.4058 315.257 26.3326V17.6593C315.257 17.5861 315.243 17.5136 315.215 17.4459C315.188 17.3782 315.147 17.3166 315.095 17.2647C315.044 17.2128 314.982 17.1716 314.915 17.1434C314.848 17.1152 314.775 17.1005 314.702 17.1003" fill="#002825"/>
            <path d="M151.4 17.0748H141.079V7.82893C141.079 7.68069 141.021 7.53851 140.916 7.43369C140.811 7.32886 140.669 7.26997 140.521 7.26997H130.713C130.565 7.26997 130.422 7.32886 130.318 7.43369C130.213 7.53851 130.154 7.68069 130.154 7.82893V17.0748H126.455C126.307 17.0753 126.165 17.1345 126.06 17.2396C125.956 17.3447 125.897 17.4871 125.897 17.6355V26.3377C125.897 26.4858 125.956 26.6277 126.061 26.7325C126.166 26.8372 126.307 26.8962 126.455 26.8967H130.154V36.4212C130.111 39.3319 130.939 42.189 132.532 44.6244C134.125 47.0598 136.41 48.9621 139.093 50.0862L139.458 50.2306C141.085 50.8487 142.811 51.1637 144.551 51.1599C145.574 51.1588 146.594 51.0535 147.596 50.8456C148.822 50.5612 150.023 50.1748 151.185 49.6903C151.638 49.5119 151.916 49.2978 151.911 48.8663V40.8233C151.913 40.7298 151.891 40.6374 151.847 40.5547C151.804 40.4721 151.74 40.402 151.661 40.351C151.583 40.3 151.493 40.2698 151.4 40.2632C151.307 40.2567 151.213 40.274 151.129 40.3136C150.17 40.7754 149.134 41.057 148.073 41.1444C145.332 41.3822 140.944 40.4886 141.069 36.5571V26.8916H151.39C151.538 26.8916 151.68 26.8327 151.785 26.7279C151.89 26.623 151.949 26.4809 151.949 26.3326V17.6372C151.949 17.5636 151.935 17.4908 151.907 17.4228C151.879 17.3547 151.838 17.2929 151.786 17.2408C151.734 17.1888 151.672 17.1474 151.604 17.1192C151.536 17.091 151.464 17.0765 151.39 17.0765" fill="#002825"/>
            <path d="M270.432 17.0731H260.66C260.512 17.0731 260.37 17.1318 260.266 17.2363C260.162 17.3409 260.103 17.4826 260.103 17.6304L260.157 50.499C260.15 50.5726 260.158 50.6469 260.18 50.7175C260.202 50.7881 260.238 50.8537 260.285 50.9105C260.332 50.9674 260.39 51.0143 260.456 51.0486C260.521 51.0829 260.593 51.104 260.667 51.1106H270.439C270.598 51.1006 270.748 51.033 270.86 50.9204C270.973 50.8077 271.04 50.6579 271.05 50.499L270.996 17.6304C270.996 17.4826 270.937 17.3409 270.833 17.2363C270.728 17.1318 270.587 17.0731 270.439 17.0731" fill="#002825"/>
            <path d="M278.547 17.0731C277.326 17.0731 276.133 17.4353 275.118 18.1139C274.104 18.7925 273.313 19.7571 272.846 20.8856C272.379 22.014 272.257 23.2558 272.495 24.4538C272.733 25.6518 273.32 26.7522 274.183 27.6159C275.046 28.4796 276.146 29.0678 277.343 29.3061C278.54 29.5444 279.78 29.4221 280.908 28.9547C282.035 28.4872 282.999 27.6957 283.677 26.68C284.355 25.6644 284.717 24.4704 284.717 23.2489C284.717 22.4379 284.558 21.6347 284.248 20.8853C283.938 20.1359 283.483 19.455 282.91 18.8815C282.337 18.308 281.657 17.8531 280.908 17.5428C280.159 17.2325 279.357 17.0729 278.547 17.0731Z" fill="#002825"/>
            <path d="M324.838 38.759C323.618 38.759 322.425 39.1212 321.41 39.7998C320.395 40.4784 319.604 41.443 319.137 42.5714C318.67 43.6999 318.548 44.9417 318.786 46.1397C319.024 47.3377 319.612 48.4381 320.475 49.3018C321.338 50.1655 322.437 50.7537 323.634 50.992C324.831 51.2303 326.072 51.108 327.199 50.6405C328.327 50.1731 329.291 49.3815 329.969 48.3659C330.647 47.3503 331.008 46.1563 331.008 44.9348C331.009 44.1237 330.849 43.3206 330.539 42.5712C330.229 41.8218 329.775 41.1409 329.202 40.5674C328.629 39.9938 327.948 39.5389 327.2 39.2287C326.451 38.9184 325.648 38.7588 324.838 38.759Z" fill="#FF5A49"/>
            <path d="M34.2832 0C33.0628 0 31.8698 0.362205 30.855 1.04081C29.8403 1.71942 29.0494 2.68395 28.5824 3.81244C28.1153 4.94092 27.9932 6.18267 28.2312 7.38066C28.4693 8.57865 29.057 9.67908 29.92 10.5428C30.7829 11.4065 31.8824 11.9947 33.0794 12.233C34.2763 12.4713 35.517 12.349 36.6445 11.8815C37.772 11.4141 38.7357 10.6225 39.4138 9.60692C40.0918 8.59131 40.4537 7.39728 40.4537 6.17582C40.4539 5.36474 40.2944 4.56156 39.9844 3.81217C39.6744 3.06279 39.2199 2.38188 38.6469 1.80836C38.0738 1.23484 37.3935 0.779937 36.6448 0.469652C35.896 0.159367 35.0936 -0.000223224 34.2832 0Z" fill="#002825"/>
            <path d="M80.4881 17.0425H71.7865C71.5709 17.0425 71.3641 17.1283 71.2116 17.2809C71.0591 17.4335 70.9734 17.6405 70.9734 17.8564V19.9767C68.0188 17.4154 64.2421 16.0037 60.3334 15.9994C55.7869 16.1001 51.4664 18.0033 48.3213 21.2907C45.1761 24.5781 43.4636 28.9808 43.5601 33.5312C43.4627 38.0824 45.1747 42.4861 48.3199 45.7745C51.4651 49.063 55.7862 50.967 60.3334 51.0682C64.2426 51.0629 68.0193 49.6499 70.9734 47.0874V48.2767C70.9734 48.2767 71.0583 53.7747 67.9366 56.2841C65.0508 58.6032 56.9027 59.0636 50.0837 56.1719C49.9614 56.117 49.8273 56.0935 49.6936 56.1037C49.5599 56.1138 49.4308 56.1573 49.3182 56.23C49.2055 56.3028 49.1128 56.4025 49.0484 56.5203C48.9841 56.638 48.9502 56.77 48.9498 56.9042L48.9735 65.3991C48.9746 65.5667 49.0262 65.73 49.1216 65.8676C49.217 66.0053 49.3518 66.1108 49.5083 66.1705C53.2185 67.5842 57.1479 68.3352 61.1176 68.3893C65.8802 68.6355 70.581 67.2235 74.4211 64.3933C80.3251 59.976 81.3198 52.5004 81.3012 48.1697V17.8564C81.3012 17.6405 81.2155 17.4335 81.063 17.2809C80.9105 17.1283 80.7037 17.0425 80.4881 17.0425ZM61.9392 41.9225C60.8385 41.9822 59.7375 41.8083 58.7086 41.4124C57.6796 41.0165 56.7459 40.4074 55.9685 39.625C55.1912 38.8427 54.5878 37.9048 54.198 36.8728C53.8081 35.8408 53.6405 34.7379 53.7062 33.6366C53.6305 32.5265 53.7888 31.4128 54.1709 30.3679C54.553 29.323 55.1503 28.3702 55.924 27.5713C56.6978 26.7723 57.6307 26.1451 58.6623 25.7304C59.6939 25.3156 60.8011 25.1225 61.9121 25.1637C63.0132 25.1253 64.1103 25.3172 65.1332 25.7271C66.1561 26.1369 67.0824 26.7558 67.8529 27.5442C68.6233 28.3326 69.221 29.2731 69.6078 30.3058C69.9946 31.3384 70.162 32.4404 70.0992 33.5414C70.1706 34.6422 70.0103 35.7457 69.6285 36.7805C69.2467 37.8153 68.652 38.7583 67.8829 39.5484C67.1138 40.3385 66.1874 40.9581 65.1638 41.3671C64.1402 41.7761 63.0405 41.9653 61.9392 41.9225Z" fill="#002825"/>
            <path d="M97.3037 0.703381C97.3037 0.630199 97.2893 0.557734 97.2613 0.490124C97.2333 0.422513 97.1923 0.36108 97.1406 0.309333C97.0889 0.257586 97.0275 0.216538 96.96 0.188532C96.8924 0.160527 96.82 0.146113 96.7469 0.146113H86.9743C86.8266 0.146113 86.685 0.204825 86.5806 0.309333C86.4762 0.413841 86.4175 0.555584 86.4175 0.703381V50.5517C86.4175 50.6995 86.4762 50.8412 86.5806 50.9457C86.685 51.0502 86.8266 51.1089 86.9743 51.1089H96.7469C96.8946 51.1089 97.0362 51.0502 97.1406 50.9457C97.245 50.8412 97.3037 50.6995 97.3037 50.5517V32.9977C97.3701 31.3085 97.9786 29.6856 99.039 28.3696C100.099 27.0537 101.555 26.1148 103.191 25.6921C103.995 25.4322 104.845 25.3469 105.684 25.4419C106.523 25.5368 107.333 25.8098 108.058 26.2426C108.784 26.6754 109.409 27.2582 109.892 27.9519C110.375 28.6457 110.704 29.4345 110.858 30.2658C111.135 31.564 111.257 32.8906 111.22 34.2176C111.22 39.5847 111.206 45.1642 111.208 50.5279C111.208 50.6731 111.265 50.8125 111.366 50.9168C111.467 51.021 111.605 51.082 111.75 51.0869C114.9 51.1922 118.059 51.007 121.212 51.1225C121.285 51.1267 121.359 51.1158 121.428 51.0904C121.498 51.065 121.561 51.0258 121.614 50.975C121.668 50.9243 121.711 50.8631 121.74 50.7953C121.769 50.7274 121.784 50.6544 121.784 50.5806C121.784 44.8142 121.768 38.7505 121.758 32.979C121.791 30.5969 121.509 28.2208 120.918 25.913C119.765 21.6655 117.531 18.2318 113.099 16.9321C107.236 15.2178 102.025 16.12 97.6381 20.957C97.5103 21.1029 97.4024 21.2652 97.3173 21.4395L97.3037 0.703381Z" fill="#002825"/>
            <path d="M254.248 17.0969H245.564C245.348 17.0969 245.142 17.1825 244.99 17.3348C244.838 17.4871 244.752 17.6936 244.752 17.909V20.0277C241.802 17.4708 238.031 16.062 234.129 16.0588C229.591 16.1591 225.278 18.0587 222.138 21.34C218.998 24.6214 217.289 29.0161 217.385 33.5584C217.289 38.1007 218.998 42.4954 222.138 45.7768C225.278 49.0581 229.591 50.9577 234.129 51.058C238.032 51.053 241.802 49.6424 244.751 47.084V50.6043C244.75 50.6768 244.764 50.7485 244.791 50.8155C244.819 50.8825 244.859 50.9434 244.911 50.9946C244.962 51.0458 245.023 51.0863 245.09 51.1138C245.156 51.1413 245.228 51.1553 245.301 51.1548L254.493 51.1208C254.631 51.1227 254.764 51.0705 254.864 50.9752C254.965 50.88 255.024 50.7493 255.029 50.6111C255.055 49.8551 255.063 17.9124 255.063 17.9124C255.063 17.8056 255.042 17.6999 255.001 17.6012C254.96 17.5026 254.9 17.413 254.825 17.3376C254.749 17.2621 254.66 17.2024 254.561 17.1616C254.462 17.1209 254.357 17.1001 254.25 17.1003M235.735 41.9361C234.636 41.9958 233.537 41.8223 232.51 41.4272C231.483 41.032 230.551 40.424 229.775 39.6431C228.999 38.8622 228.397 37.926 228.008 36.8958C227.619 35.8656 227.452 34.7648 227.517 33.6654C227.48 32.571 227.662 31.4802 228.054 30.4575C228.445 29.4348 229.037 28.5011 229.795 27.7114C230.553 26.9217 231.461 26.2922 232.467 25.8601C233.472 25.4279 234.554 25.2019 235.648 25.1955C236.742 25.189 237.826 25.4022 238.837 25.8224C239.847 26.2426 240.763 26.8613 241.53 27.6419C242.298 28.4226 242.901 29.3493 243.304 30.3673C243.707 31.3852 243.902 32.4738 243.878 33.5686C243.95 34.6679 243.79 35.77 243.409 36.8034C243.027 37.8368 242.433 38.7785 241.665 39.5673C240.897 40.3561 239.971 40.9745 238.949 41.3823C237.926 41.7901 236.83 41.9782 235.73 41.9344" fill="#002825"/>
            <path d="M18.4453 17.1003C17.2249 17.1003 16.0319 17.4625 15.0171 18.1411C14.0024 18.8197 13.2115 19.7843 12.7445 20.9127C12.2775 22.0412 12.1553 23.283 12.3934 24.481C12.6314 25.679 13.2191 26.7794 14.0821 27.6431C14.945 28.5068 16.0445 29.095 17.2415 29.3333C18.4384 29.5716 19.6791 29.4493 20.8066 28.9818C21.9341 28.5144 22.8978 27.7228 23.5759 26.7072C24.2539 25.6916 24.6158 24.4976 24.6158 23.2761C24.616 22.465 24.4566 21.6619 24.1465 20.9125C23.8365 20.1631 23.382 19.4822 22.809 18.9087C22.236 18.3351 21.5556 17.8802 20.8069 17.57C20.0582 17.2597 19.2557 17.1001 18.4453 17.1003Z" fill="#002825"/>
            <path d="M14.5156 90.5153C14.5306 91.6747 14.3303 92.8269 13.9249 93.9132C13.5574 94.8935 12.989 95.7859 12.2562 96.5331C11.523 97.2712 10.6427 97.8466 9.6726 98.2219C8.60822 98.6291 7.47638 98.8309 6.33696 98.8165H0.129123V82.2038H6.33696C7.47679 82.1901 8.60882 82.3936 9.6726 82.8036C10.6447 83.1796 11.5255 83.7588 12.2562 84.5025C12.9877 85.2527 13.5559 86.1465 13.9249 87.1275C14.3303 88.2138 14.5306 89.366 14.5156 90.5254M12.2104 90.5254C12.2251 89.5973 12.0839 88.6732 11.7928 87.7918C11.5422 87.0371 11.1375 86.3428 10.6045 85.753C10.0908 85.1942 9.45777 84.7587 8.75254 84.4788C7.98106 84.1769 7.15845 84.0274 6.33017 84.0387H2.39701V96.9952H6.33696C7.16524 97.0065 7.98785 96.857 8.75933 96.5552C9.46399 96.2758 10.0969 95.8414 10.6113 95.2843C11.146 94.6957 11.5509 94.0011 11.7996 93.2455C12.0907 92.3635 12.2318 91.4389 12.2172 90.5102" fill="#002825"/>
            <path d="M20.0036 83.3846C20.0053 83.5788 19.9635 83.771 19.8814 83.947C19.8023 84.1191 19.6931 84.2756 19.5589 84.4091C19.4249 84.545 19.2658 84.6535 19.0903 84.7285C18.9108 84.8061 18.7172 84.846 18.5217 84.8457C18.3288 84.8465 18.1379 84.8066 17.9615 84.7285C17.6129 84.5741 17.334 84.2956 17.1789 83.947C17.1012 83.7697 17.0613 83.5782 17.0618 83.3846C17.0619 83.1878 17.1017 82.993 17.1789 82.812C17.253 82.6344 17.3608 82.4729 17.4964 82.3363C17.631 82.2028 17.7885 82.0946 17.9615 82.0169C18.1379 81.9389 18.3288 81.8989 18.5217 81.8997C18.7172 81.8995 18.9108 81.9394 19.0903 82.0169C19.265 82.0934 19.4238 82.2017 19.5589 82.3363C19.6946 82.4737 19.804 82.635 19.8814 82.812C19.9632 82.9917 20.0049 83.1871 20.0036 83.3846ZM19.5419 98.8165H17.4811V87.0714H19.5419V98.8165Z" fill="#002825"/>
            <path d="M27.8207 86.8862C28.4868 86.8795 29.1481 86.9994 29.7695 87.2396C30.349 87.4665 30.8738 87.814 31.3091 88.259C31.7566 88.7305 32.1001 89.2908 32.3174 89.9036C32.5709 90.6201 32.6945 91.3761 32.6824 92.1361C32.7019 92.3573 32.6657 92.5798 32.5772 92.7834C32.5318 92.8434 32.4717 92.8906 32.4026 92.9204C32.3336 92.9501 32.2581 92.9615 32.1833 92.9533H24.3747C24.3769 93.6093 24.4782 94.2611 24.6752 94.8868C24.8354 95.3915 25.0951 95.8589 25.4391 96.2612C25.7561 96.6222 26.1532 96.9038 26.5985 97.0835C27.0778 97.272 27.5893 97.3649 28.1042 97.3571C28.5567 97.3664 29.0079 97.3057 29.4418 97.177C29.7741 97.0753 30.0972 96.9457 30.4077 96.7896C30.6407 96.6726 30.8674 96.5433 31.0867 96.4023C31.223 96.2994 31.3853 96.237 31.5553 96.2222C31.6324 96.2192 31.7091 96.2356 31.7782 96.2701C31.8473 96.3045 31.9067 96.3558 31.9508 96.4192L32.5296 97.1753C32.2671 97.4887 31.958 97.7598 31.613 97.9789C31.2552 98.2089 30.8725 98.3975 30.4722 98.5413C30.0638 98.6892 29.6428 98.7995 29.2144 98.8709C28.79 98.9443 28.36 98.9812 27.9293 98.9813C27.1657 98.9886 26.4078 98.8484 25.6971 98.5685C25.0243 98.3028 24.4185 97.8914 23.9232 97.3639C23.403 96.7965 23.0065 96.1271 22.7587 95.3982C22.4677 94.532 22.3271 93.6223 22.3428 92.7087C22.3362 91.9277 22.4631 91.1514 22.718 90.4133C22.9527 89.7307 23.3208 89.1018 23.801 88.5631C24.2824 88.0348 24.871 87.6154 25.5274 87.3331C26.2519 87.0264 27.0341 86.8742 27.8207 86.8862ZM27.8665 88.4051C27.4366 88.3817 27.0065 88.4462 26.6023 88.5945C26.1981 88.7429 25.8283 88.9721 25.5155 89.2682C24.9072 89.9272 24.5331 90.7687 24.4511 91.6621H30.8321C30.8367 91.216 30.7703 90.7721 30.6352 90.3471C30.5132 89.9675 30.3164 89.6162 30.0563 89.3141C29.7994 89.021 29.4805 88.7888 29.1227 88.6345C28.7253 88.4698 28.2983 88.3888 27.8682 88.3966" fill="#002825"/>
            <path d="M44.431 86.8862C45.0959 86.8799 45.756 86.9999 46.3763 87.2396C46.9558 87.4665 47.4806 87.814 47.916 88.259C48.3671 88.7295 48.7141 89.2899 48.9345 89.9036C49.1879 90.6201 49.3115 91.3761 49.2995 92.1361C49.3199 92.3573 49.2837 92.5801 49.1942 92.7834C49.1489 92.8434 49.0887 92.8906 49.0197 92.9204C48.9507 92.9501 48.8751 92.9615 48.8004 92.9533H40.9986C40.9993 93.6092 41.1 94.2612 41.2973 94.8868C41.4575 95.3915 41.7173 95.8589 42.0612 96.2612C42.3783 96.6222 42.7753 96.9038 43.2206 97.0835C43.7 97.2716 44.2115 97.3645 44.7263 97.3571C45.1788 97.3664 45.63 97.3057 46.064 97.177C46.3963 97.0753 46.7194 96.9457 47.0299 96.7896C47.2631 96.673 47.4898 96.5437 47.7089 96.4023C47.8451 96.2994 48.0074 96.237 48.1774 96.2222C48.2546 96.2192 48.3312 96.2356 48.4003 96.2701C48.4695 96.3045 48.5288 96.3558 48.5729 96.4192L49.1518 97.1753C48.8904 97.4885 48.5824 97.7596 48.2385 97.9789C47.8801 98.2089 47.4968 98.3975 47.0961 98.5413C46.6877 98.6892 46.2666 98.7995 45.8382 98.8709C45.4138 98.9443 44.9839 98.9812 44.5532 98.9813C43.7844 98.9905 43.0211 98.8503 42.3057 98.5685C41.6328 98.3028 41.0271 97.8914 40.5318 97.3639C40.0123 96.796 39.6158 96.1267 39.3673 95.3982C39.0763 94.532 38.9356 93.6223 38.9514 92.7087C38.9447 91.9277 39.0716 91.1514 39.3265 90.4133C39.5612 89.7307 39.9294 89.1018 40.4095 88.5631C40.8916 88.0352 41.4808 87.6164 42.1376 87.3348C42.8627 87.0279 43.6438 86.874 44.431 86.8862ZM44.4785 88.4068C44.048 88.383 43.6173 88.4473 43.2125 88.5957C42.8077 88.7441 42.4373 88.9735 42.124 89.2699C41.5164 89.9294 41.1424 90.7705 41.0597 91.6638H47.4492C47.4532 91.2177 47.3862 90.7737 47.2506 90.3488C47.1286 89.9692 46.9317 89.6179 46.6717 89.3158C46.415 89.0231 46.0967 88.7911 45.7398 88.6362C45.3423 88.4719 44.9153 88.3909 44.4853 88.3983" fill="#002825"/>
            <path d="M54.6806 83.3846C54.6823 83.5788 54.6405 83.771 54.5584 83.947C54.4793 84.1191 54.3701 84.2756 54.2359 84.4091C54.1013 84.545 53.9416 84.6535 53.7656 84.7285C53.5868 84.8063 53.3937 84.8462 53.1987 84.8457C53.0052 84.8467 52.8138 84.8067 52.6368 84.7285C52.4639 84.6517 52.3067 84.5434 52.1734 84.4091C52.0394 84.2765 51.9317 84.1197 51.8559 83.947C51.7773 83.77 51.7374 83.5783 51.7388 83.3846C51.7379 83.1877 51.7778 82.9928 51.8559 82.8121C51.93 82.6344 52.0378 82.4729 52.1734 82.3363C52.3077 82.2032 52.4646 82.0951 52.6368 82.0169C52.8138 81.9387 53.0052 81.8988 53.1987 81.8997C53.3937 81.8992 53.5868 81.9391 53.7656 82.0169C53.9407 82.0934 54.1002 82.2017 54.2359 82.3363C54.3716 82.4737 54.481 82.635 54.5584 82.8121C54.6402 82.9918 54.6819 83.1871 54.6806 83.3846ZM54.2172 98.8165H52.1564V87.0714H54.2172V98.8165Z" fill="#002825"/>
            <path d="M57.855 98.8148V87.0714H59.084C59.2131 87.0613 59.3413 87.0995 59.4438 87.1786C59.5464 87.2577 59.6159 87.3721 59.6391 87.4996L59.8088 88.7755C60.2987 88.2272 60.8764 87.7644 61.5182 87.4061C62.1897 87.0494 62.9412 86.8704 63.7012 86.8862C64.2829 86.8746 64.8607 86.9827 65.3988 87.2039C65.8727 87.4054 66.2929 87.7149 66.6261 88.1078C66.9661 88.5229 67.2201 89.0017 67.373 89.5163C67.5476 90.1068 67.6328 90.7201 67.6259 91.3359V98.8114H65.5566V91.3359C65.6024 90.5967 65.3873 89.8649 64.9489 89.2682C64.716 89.0117 64.4276 88.812 64.1057 88.6842C63.7839 88.5564 63.4371 88.5039 63.0918 88.5308C62.4935 88.5283 61.9047 88.6805 61.3824 88.9726C60.8306 89.2842 60.3348 89.6862 59.9158 90.1619V98.8097L57.855 98.8148Z" fill="#002825"/>
            <path d="M71.1975 98.8165V88.8333L69.9006 88.6837C69.7569 88.6521 69.6211 88.5914 69.5017 88.5054C69.4494 88.4627 69.4081 88.4083 69.3809 88.3466C69.3538 88.2849 69.3416 88.2176 69.3455 88.1503V87.3008H71.1992V86.1658C71.1886 85.5568 71.2851 84.9507 71.4844 84.3751C71.6562 83.8819 71.9324 83.4316 72.2941 83.055C72.651 82.6906 73.0848 82.4108 73.5639 82.2361C74.0984 82.0443 74.6631 81.9505 75.2308 81.9592C75.7271 81.9538 76.2207 82.0325 76.6907 82.1919L76.6449 83.2232C76.6493 83.2851 76.6321 83.3466 76.5962 83.3971C76.5602 83.4477 76.5078 83.4841 76.4479 83.5001C76.2761 83.5362 76.1006 83.5516 75.9251 83.546H75.5635C75.2363 83.5423 74.9105 83.5893 74.5976 83.6853C74.3158 83.7733 74.0595 83.9284 73.8507 84.1373C73.6271 84.3699 73.4619 84.6523 73.3686 84.9613C73.2463 85.3706 73.1891 85.7965 73.1989 86.2236V87.3008H76.5939V88.8027H73.2702V98.8165H71.1975Z" fill="#002825"/>
            <path d="M87.1593 98.8148H86.2426C86.076 98.8212 85.91 98.7898 85.7572 98.7231C85.6882 98.6814 85.63 98.624 85.5875 98.5554C85.545 98.4869 85.5194 98.4093 85.5127 98.3289L85.2818 97.2382C84.9729 97.5168 84.6741 97.7665 84.3788 97.9857C84.0903 98.2032 83.7803 98.3905 83.4536 98.5447C83.1217 98.6966 82.7738 98.8106 82.4164 98.8845C82.0137 98.9662 81.6035 99.0055 81.1925 99.0017C80.7585 99.0058 80.3266 98.9416 79.9126 98.8114C79.5312 98.6916 79.1782 98.495 78.8754 98.2338C78.5732 97.9659 78.3339 97.6347 78.1743 97.2636C77.9913 96.8237 77.9023 96.3503 77.9129 95.8739C77.9155 95.3997 78.0482 94.9354 78.2965 94.5317C78.6027 94.0507 79.027 93.6564 79.5289 93.3865C80.2265 93.0021 80.9778 92.7249 81.7578 92.5642C82.8656 92.3324 83.9958 92.2252 85.1274 92.2448V91.3223C85.1816 90.5808 84.9757 89.8435 84.5451 89.2376C84.3296 88.9953 84.0615 88.8056 83.7614 88.683C83.4612 88.5605 83.137 88.5085 82.8137 88.5308C82.3826 88.5197 81.9528 88.5841 81.5439 88.7211C81.233 88.8337 80.9344 88.9777 80.6527 89.151C80.4015 89.309 80.1842 89.4517 80.0043 89.5791C79.8495 89.6979 79.6611 89.7646 79.4661 89.7694C79.3357 89.7732 79.2076 89.7345 79.1012 89.659C78.9986 89.5884 78.9133 89.4954 78.8516 89.3871L78.4816 88.7262C79.0857 88.1308 79.7971 87.6552 80.578 87.3246C81.3694 87.0071 82.2158 86.8495 83.0683 86.8607C83.6675 86.849 84.2628 86.9589 84.8184 87.1836C85.3084 87.3873 85.7473 87.6971 86.1035 88.0908C86.4613 88.4976 86.7297 88.9751 86.8911 89.4925C87.0739 90.078 87.1638 90.6885 87.1576 91.3019L87.1593 98.8148ZM81.807 97.5457C82.1424 97.5492 82.477 97.5121 82.8035 97.4352C83.0978 97.3645 83.3828 97.259 83.6522 97.1209C83.9234 96.9837 84.1799 96.8191 84.4178 96.6299C84.6714 96.4274 84.9091 96.2059 85.1291 95.9673V93.5531C84.3184 93.5408 83.5083 93.6011 82.7084 93.7331C82.1503 93.8216 81.6056 93.9803 81.0873 94.2055C80.7305 94.3497 80.4171 94.5838 80.1774 94.8851C79.9892 95.1415 79.8891 95.4521 79.8922 95.7702C79.8858 96.0463 79.9373 96.3206 80.0433 96.5756C80.135 96.788 80.2738 96.9768 80.449 97.1277C80.625 97.275 80.8305 97.3828 81.0516 97.4437C81.2972 97.5107 81.5508 97.5439 81.8053 97.5423" fill="#002825"/>
            <path d="M98.29 89.1578C98.2382 89.2326 98.1752 89.2991 98.1032 89.3548C98.0249 89.4064 97.9319 89.4308 97.8384 89.4245C97.7014 89.4168 97.5702 89.3663 97.4633 89.2801C97.3275 89.1832 97.1543 89.0779 96.954 88.9607C96.712 88.83 96.4578 88.7231 96.1952 88.6413C95.8398 88.5375 95.4705 88.4894 95.1003 88.4986C94.5786 88.4883 94.061 88.5933 93.5844 88.8061C93.1488 89.0061 92.7687 89.3101 92.4777 89.6912C92.1618 90.1107 91.9312 90.5881 91.7987 91.0963C91.6412 91.6979 91.5653 92.3179 91.5729 92.9397C91.563 93.5795 91.6447 94.2175 91.8156 94.8341C91.9511 95.3371 92.1816 95.8094 92.4946 96.2256C92.7779 96.5932 93.1453 96.8875 93.5658 97.0835C94.0105 97.2859 94.4947 97.3869 94.9832 97.3792C95.4035 97.3925 95.8229 97.3321 96.2224 97.2008C96.5082 97.1001 96.7807 96.9649 97.0338 96.7981C97.2193 96.6759 97.3973 96.5425 97.5668 96.3988C97.6807 96.2921 97.8286 96.2289 97.9844 96.2204C98.0616 96.2157 98.1386 96.2315 98.2078 96.2661C98.2769 96.3007 98.3357 96.3529 98.3782 96.4175L98.9571 97.1719C98.4542 97.7929 97.7942 98.2675 97.0457 98.5464C96.2721 98.8379 95.4517 98.9853 94.625 98.9813C93.9254 98.9872 93.232 98.849 92.588 98.5752C91.962 98.309 91.4026 97.9075 90.9499 97.3995C90.4629 96.8465 90.0907 96.2019 89.855 95.5035C89.5753 94.6794 89.4392 93.8133 89.4527 92.9431C89.4448 92.1207 89.568 91.3023 89.8176 90.5186C90.0398 89.8137 90.4025 89.1612 90.8837 88.6005C91.3589 88.0559 91.9508 87.6255 92.6152 87.3415C93.3634 87.028 94.1688 86.874 94.9798 86.8896C95.7241 86.8754 96.4636 87.0112 97.1543 87.2889C97.7826 87.5525 98.3535 87.9363 98.8349 88.4187L98.29 89.1578Z" fill="#002825"/>
            <path d="M101.104 98.8148V81.7383H103.165V88.6481C103.647 88.1318 104.211 87.6989 104.834 87.367C105.487 87.0371 106.211 86.872 106.942 86.8862C107.524 86.8746 108.102 86.9827 108.64 87.2039C109.114 87.4054 109.534 87.7149 109.867 88.1078C110.207 88.5229 110.461 89.0017 110.614 89.5163C110.789 90.1068 110.874 90.7201 110.867 91.3359V98.8114H108.806V91.3359C108.852 90.5967 108.637 89.8649 108.198 89.2682C107.966 89.0117 107.677 88.812 107.355 88.6842C107.033 88.5564 106.687 88.5039 106.341 88.5308C105.743 88.5283 105.154 88.6805 104.632 88.9726C104.08 89.2842 103.584 89.6862 103.165 90.1619V98.8097L101.104 98.8148Z" fill="#002825"/>
            <path d="M120.704 89.0066C120.665 89.0856 120.604 89.1516 120.528 89.1965C120.452 89.2414 120.364 89.2634 120.276 89.2597C120.136 89.2534 120.001 89.2107 119.882 89.1357C119.736 89.049 119.555 88.9556 119.344 88.8503C119.1 88.7337 118.846 88.6371 118.586 88.5614C118.246 88.4663 117.895 88.4211 117.543 88.4272C117.225 88.4232 116.909 88.4685 116.605 88.5614C116.346 88.6383 116.105 88.7621 115.892 88.9267C115.703 89.0698 115.549 89.2532 115.44 89.4636C115.335 89.6705 115.282 89.8994 115.284 90.1313C115.275 90.4064 115.368 90.675 115.545 90.8856C115.74 91.1019 115.974 91.2794 116.234 91.4089C116.548 91.5652 116.874 91.6948 117.209 91.7963C117.57 91.9084 117.944 92.0274 118.326 92.1548C118.708 92.2822 119.081 92.4249 119.445 92.5795C119.794 92.7265 120.122 92.9221 120.417 93.1606C120.726 93.4055 120.973 93.7199 121.139 94.0782C121.304 94.4366 121.382 94.8288 121.368 95.2232C121.373 95.7375 121.275 96.2478 121.079 96.7234C120.887 97.1797 120.594 97.5864 120.222 97.9126C119.815 98.2654 119.342 98.5349 118.832 98.7061C118.219 98.9089 117.577 99.0066 116.932 98.9949C116.172 99.0054 115.417 98.8699 114.708 98.5956C114.087 98.3588 113.512 98.0137 113.011 97.5762L113.496 96.7879C113.551 96.6949 113.626 96.6154 113.715 96.5552C113.819 96.4969 113.936 96.4692 114.055 96.4753C114.214 96.4831 114.368 96.5394 114.495 96.6367C114.649 96.7454 114.834 96.8661 115.056 96.9986C115.311 97.1439 115.578 97.264 115.856 97.3571C116.235 97.4781 116.632 97.5355 117.031 97.527C117.388 97.5337 117.744 97.4809 118.085 97.3707C118.36 97.2798 118.615 97.1355 118.835 96.9459C119.029 96.7786 119.183 96.5687 119.283 96.3326C119.38 96.0966 119.429 95.8436 119.428 95.5884C119.439 95.298 119.346 95.0131 119.166 94.7848C118.975 94.5586 118.741 94.3732 118.477 94.2394C118.164 94.0768 117.836 93.9448 117.497 93.8453C117.132 93.732 116.758 93.6142 116.375 93.4919C115.993 93.3696 115.62 93.2268 115.253 93.0705C114.9 92.9185 114.571 92.7165 114.276 92.4708C113.985 92.2275 113.75 91.9252 113.585 91.5839C113.401 91.1824 113.313 90.7442 113.325 90.3029C113.324 89.8571 113.419 89.4163 113.602 89.01C113.79 88.5919 114.067 88.2197 114.413 87.9192C114.798 87.5899 115.242 87.3368 115.722 87.1734C116.292 86.9782 116.892 86.8839 117.494 86.8947C118.204 86.8838 118.91 87.0077 119.574 87.26C120.164 87.4886 120.704 87.8289 121.166 88.2624L120.704 89.0066Z" fill="#002825"/>
            <path d="M127.594 99C127.204 99.0259 126.812 98.9703 126.444 98.8366C126.076 98.703 125.74 98.4942 125.457 98.2236C124.923 97.6049 124.654 96.8001 124.71 95.9843V88.7993H123.296C123.183 88.8023 123.072 88.7636 122.986 88.6905C122.94 88.6469 122.905 88.5938 122.883 88.5351C122.861 88.4763 122.852 88.4134 122.857 88.3507V87.525L124.778 87.2804L125.253 83.6513C125.265 83.5408 125.319 83.4391 125.405 83.3676C125.495 83.2927 125.61 83.2535 125.727 83.2572H126.769V87.3042H130.129V88.7993H126.771V95.8484C126.755 96.0463 126.779 96.2455 126.841 96.4342C126.902 96.6229 127.001 96.7975 127.131 96.9476C127.253 97.0685 127.398 97.163 127.558 97.2252C127.717 97.2875 127.888 97.3162 128.059 97.3095C128.25 97.3132 128.44 97.2833 128.62 97.2212C128.763 97.171 128.901 97.1072 129.032 97.0309C129.149 96.9612 129.248 96.8983 129.327 96.8406C129.389 96.7896 129.464 96.7587 129.543 96.7522C129.604 96.7574 129.663 96.7782 129.713 96.8128C129.764 96.8473 129.805 96.8943 129.832 96.9493L130.434 97.9364C130.062 98.2791 129.625 98.5447 129.149 98.718C128.653 98.9059 128.127 99.0021 127.596 99.0017" fill="#002825"/>
            <path d="M137.323 86.8862C137.988 86.8799 138.648 86.9999 139.268 87.2396C139.848 87.4665 140.372 87.814 140.808 88.259C141.259 88.7295 141.606 89.2899 141.826 89.9036C142.08 90.6201 142.203 91.3761 142.191 92.1361C142.211 92.3573 142.175 92.5798 142.086 92.7834C142.041 92.8434 141.981 92.8906 141.912 92.9204C141.843 92.9501 141.767 92.9615 141.692 92.9533H133.884C133.886 93.6093 133.987 94.2611 134.184 94.8868C134.344 95.3915 134.604 95.8589 134.948 96.2612C135.265 96.6222 135.662 96.9038 136.107 97.0835C136.587 97.272 137.098 97.3649 137.613 97.3571C138.066 97.3664 138.517 97.3057 138.951 97.177C139.283 97.0753 139.606 96.9457 139.917 96.7896C140.15 96.6726 140.376 96.5433 140.596 96.4023C140.732 96.2994 140.894 96.237 141.064 96.2222C141.141 96.2192 141.218 96.2356 141.287 96.2701C141.356 96.3045 141.416 96.3558 141.46 96.4192L142.039 97.1753C141.776 97.4887 141.467 97.7598 141.122 97.9789C140.764 98.2093 140.382 98.3979 139.981 98.5413C139.573 98.6892 139.152 98.7995 138.723 98.8709C138.299 98.9443 137.869 98.9812 137.438 98.9813C136.672 98.9894 135.912 98.8493 135.199 98.5685C134.526 98.3028 133.921 97.8914 133.425 97.3639C132.905 96.7965 132.509 96.1271 132.261 95.3982C131.97 94.532 131.829 93.6223 131.845 92.7087C131.838 91.9277 131.965 91.1514 132.22 90.4133C132.452 89.7308 132.817 89.1013 133.295 88.5614C133.777 88.0335 134.366 87.6147 135.023 87.3331C135.748 87.0262 136.529 86.874 137.316 86.8862M137.362 88.4051C136.932 88.3817 136.502 88.4461 136.098 88.5945C135.693 88.7429 135.324 88.9721 135.011 89.2682C134.403 89.9272 134.028 90.7687 133.946 91.6621H140.327C140.332 91.216 140.266 90.7721 140.131 90.3471C140.009 89.9675 139.812 89.6162 139.552 89.3141C139.295 89.021 138.976 88.7888 138.618 88.6345C138.221 88.4698 137.794 88.3888 137.364 88.3966" fill="#002825"/>
            <path d="M152.079 89.484H152.928C153.167 89.4937 153.405 89.4562 153.629 89.3735C153.82 89.288 153.988 89.1595 154.122 88.9981L159.647 82.7356C159.785 82.5703 159.952 82.4316 160.139 82.3261C160.33 82.2385 160.538 82.1967 160.747 82.2038H162.658L156.332 89.3497C156.188 89.5095 156.035 89.661 155.873 89.8034C155.735 89.9234 155.581 90.024 155.415 90.1024C155.623 90.1688 155.817 90.2756 155.984 90.4167C156.167 90.5777 156.337 90.7526 156.493 90.94L163.095 98.8114H161.149C161.024 98.8139 160.9 98.8019 160.777 98.7757C160.686 98.7575 160.599 98.7266 160.516 98.684C160.442 98.6439 160.374 98.593 160.314 98.5328C160.255 98.4699 160.192 98.4054 160.129 98.3374L154.397 91.7385C154.321 91.6563 154.241 91.578 154.157 91.5041C154.081 91.4352 153.995 91.378 153.903 91.3342C153.795 91.2838 153.681 91.2505 153.563 91.2356C153.408 91.2134 153.251 91.2032 153.095 91.205H152.076V98.8114H149.844V82.2038H152.079V89.484Z" fill="#002825"/>
            <path d="M173.682 98.8148H172.764C172.597 98.8209 172.431 98.7896 172.278 98.7231C172.21 98.6812 172.152 98.6237 172.11 98.5552C172.067 98.4867 172.042 98.4091 172.035 98.3289L171.805 97.2382C171.496 97.5168 171.197 97.7665 170.902 97.9857C170.612 98.2038 170.301 98.3911 169.973 98.5447C169.641 98.6972 169.293 98.8112 168.936 98.8845C168.534 98.9662 168.125 99.0055 167.715 99.0017C167.281 99.0058 166.849 98.9416 166.435 98.8114C166.054 98.6916 165.701 98.495 165.398 98.2338C165.096 97.9659 164.857 97.6347 164.697 97.2636C164.514 96.8237 164.425 96.3503 164.436 95.8739C164.438 95.3997 164.571 94.9354 164.819 94.5317C165.125 94.0507 165.55 93.6564 166.052 93.3865C166.749 93.0021 167.501 92.7249 168.281 92.5642C169.388 92.3324 170.519 92.2252 171.65 92.2448V91.3223C171.703 90.5817 171.497 89.8458 171.066 89.241C170.851 88.9987 170.583 88.809 170.282 88.6864C169.982 88.5639 169.658 88.5119 169.335 88.5342C168.904 88.5229 168.474 88.5873 168.065 88.7245C167.754 88.8371 167.455 88.9811 167.174 89.1544C166.923 89.3124 166.705 89.4551 166.525 89.5825C166.371 89.7013 166.182 89.7679 165.987 89.7728C165.857 89.7766 165.729 89.7379 165.622 89.6624C165.52 89.5918 165.434 89.4988 165.373 89.3905L165.003 88.7296C165.607 88.1342 166.318 87.6586 167.099 87.328C167.89 87.0106 168.736 86.853 169.588 86.8641C170.187 86.8522 170.782 86.962 171.338 87.1869C171.828 87.3907 172.268 87.7005 172.625 88.0942C172.983 88.5005 173.25 88.9783 173.41 89.4959C173.595 90.081 173.686 90.6917 173.68 91.3053L173.682 98.8148ZM168.33 97.5457C168.665 97.5492 169 97.5121 169.326 97.4352C169.621 97.365 169.906 97.2595 170.175 97.1209C170.447 96.9846 170.703 96.82 170.941 96.6299C171.195 96.4275 171.433 96.206 171.654 95.9673V93.553C170.843 93.5408 170.033 93.601 169.233 93.7331C168.675 93.8215 168.13 93.9802 167.612 94.2055C167.255 94.3497 166.942 94.5838 166.702 94.8851C166.514 95.1415 166.414 95.4521 166.417 95.7702C166.41 96.0463 166.462 96.3206 166.568 96.5755C166.659 96.788 166.798 96.9768 166.973 97.1277C167.149 97.2751 167.355 97.3828 167.576 97.4437C167.822 97.5107 168.075 97.5439 168.33 97.5423" fill="#002825"/>
            <path d="M176.807 98.8148V87.0714H178.036C178.165 87.0613 178.294 87.0995 178.396 87.1786C178.499 87.2577 178.568 87.3721 178.591 87.4996L178.761 88.7755C179.25 88.2267 179.827 87.7639 180.469 87.4061C181.14 87.0496 181.892 86.8707 182.652 86.8862C183.233 86.8746 183.811 86.9827 184.349 87.2039C184.824 87.4048 185.244 87.7144 185.577 88.1078C185.917 88.5228 186.172 89.0016 186.325 89.5163C186.5 90.1068 186.585 90.7201 186.578 91.3359V98.8114H184.512V91.3359C184.558 90.5967 184.343 89.8649 183.905 89.2682C183.67 89.0105 183.38 88.81 183.057 88.6822C182.733 88.5544 182.384 88.5026 182.037 88.5308C181.439 88.5286 180.85 88.6807 180.328 88.9726C179.776 89.2842 179.28 89.6862 178.861 90.1619V98.8097L176.807 98.8148Z" fill="#002825"/>
            <path d="M197.875 87.9515C197.876 88.0969 197.849 88.2411 197.795 88.3762C197.743 88.5066 197.673 88.629 197.587 88.7398L191.24 97.2025H197.644V98.8148H188.807V97.9568C188.811 97.8355 188.836 97.7159 188.882 97.6034C188.935 97.4637 189.007 97.3321 189.097 97.2127L195.48 88.6939H189.167V87.0697H197.875V87.9515Z" fill="#002825"/>
            <path d="M202.681 81.74H200.62V98.8165H202.681V81.74Z" fill="#002825"/>
            <path d="M210.963 86.8862C211.628 86.8796 212.288 86.9995 212.908 87.2396C213.488 87.4655 214.013 87.8131 214.448 88.259C214.901 88.7285 215.248 89.2892 215.467 89.9036C215.722 90.6196 215.847 91.3758 215.835 92.1361C215.853 92.3572 215.817 92.5795 215.73 92.7834C215.684 92.8433 215.624 92.8904 215.555 92.9201C215.486 92.9499 215.411 92.9613 215.336 92.9533H207.527C207.529 93.6093 207.631 94.2611 207.828 94.8867C207.989 95.3915 208.249 95.8589 208.593 96.2612C208.91 96.6214 209.305 96.903 209.749 97.0835C210.229 97.2718 210.74 97.3647 211.255 97.3571C211.708 97.3666 212.159 97.3058 212.593 97.177C212.925 97.0749 213.249 96.9453 213.56 96.7896C213.793 96.6727 214.02 96.5434 214.239 96.4022C214.376 96.2994 214.539 96.237 214.709 96.2222C214.786 96.2188 214.863 96.2351 214.932 96.2696C215.001 96.3041 215.06 96.3556 215.103 96.4192L215.682 97.1753C215.421 97.489 215.113 97.7601 214.769 97.9789C214.411 98.2085 214.028 98.3971 213.628 98.5413C213.22 98.6889 212.799 98.7993 212.37 98.8709C211.946 98.9441 211.516 98.981 211.085 98.9813C210.319 98.9894 209.558 98.8493 208.845 98.5685C208.172 98.3018 207.567 97.8906 207.071 97.3639C206.55 96.7969 206.154 96.1274 205.908 95.3981C205.616 94.5322 205.475 93.6224 205.492 92.7086C205.484 91.9276 205.611 91.1512 205.867 90.4133C206.101 89.7303 206.469 89.1012 206.95 88.5631C207.431 88.0354 208.019 87.6166 208.675 87.3347C209.4 87.0279 210.181 86.8757 210.968 86.8879M211.014 88.4068C210.584 88.3831 210.154 88.4475 209.75 88.5959C209.346 88.7443 208.977 88.9736 208.665 89.2699C208.055 89.9281 207.68 90.7699 207.599 91.6638H213.981C213.986 91.2177 213.919 90.7738 213.784 90.3488C213.663 89.9687 213.465 89.6173 213.204 89.3158C212.948 89.0223 212.629 88.79 212.272 88.6362C211.873 88.4711 211.445 88.3901 211.014 88.3983" fill="#002825"/>
            <path d="M221.213 83.3846C221.213 83.5787 221.172 83.7707 221.09 83.947C221.011 84.1191 220.902 84.2756 220.768 84.4091C220.634 84.545 220.475 84.6535 220.299 84.7285C220.12 84.8057 219.926 84.8455 219.731 84.8457C219.537 84.8463 219.346 84.8063 219.169 84.7285C218.996 84.6523 218.838 84.5439 218.705 84.4091C218.573 84.2754 218.465 84.1189 218.388 83.947C218.309 83.77 218.269 83.5783 218.271 83.3846C218.27 83.1877 218.31 82.9928 218.388 82.812C218.537 82.456 218.816 82.1707 219.169 82.0152C219.346 81.9374 219.537 81.8975 219.731 81.898C219.926 81.8982 220.12 81.9381 220.299 82.0152C220.474 82.0917 220.633 82.2 220.768 82.3346C220.904 82.472 221.013 82.6333 221.09 82.8103C221.171 82.9904 221.213 83.1873 221.213 83.3846ZM220.749 98.8131H218.688V87.0714H220.749V98.8131Z" fill="#002825"/>
            <path d="M237.117 98.8165C236.988 98.8263 236.859 98.788 236.757 98.709C236.654 98.63 236.584 98.5158 236.56 98.3884L236.375 96.9629C235.896 97.5523 235.313 98.0492 234.655 98.4291C233.977 98.8039 233.212 98.9938 232.437 98.9796C231.806 98.9888 231.18 98.8564 230.607 98.5922C230.055 98.3291 229.574 97.9376 229.205 97.4505C228.79 96.8871 228.488 96.2492 228.313 95.5714C228.092 94.7277 227.987 93.8578 227.999 92.9856C227.993 92.1672 228.111 91.3525 228.349 90.5696C228.557 89.8652 228.897 89.2064 229.349 88.6277C229.79 88.0642 230.356 87.6114 231.003 87.3053C231.649 86.9991 232.358 86.8481 233.073 86.8641C233.707 86.8467 234.336 86.9715 234.915 87.2294C235.433 87.4769 235.898 87.8232 236.283 88.2488V81.7417H238.344V98.8165H237.117ZM233.121 97.3112C233.742 97.325 234.354 97.1643 234.888 96.8474C235.431 96.5023 235.904 96.0586 236.283 95.5392V89.8561C235.966 89.3978 235.537 89.0282 235.037 88.7823C234.565 88.573 234.053 88.4681 233.537 88.4748C233.052 88.4486 232.569 88.5418 232.129 88.7462C231.689 88.9506 231.305 89.2599 231.012 89.6471C230.365 90.6345 230.056 91.8055 230.131 92.9839C230.122 93.6445 230.188 94.3041 230.328 94.9496C230.433 95.4316 230.63 95.8886 230.909 96.2952C231.146 96.6326 231.471 96.8991 231.848 97.0666C232.251 97.2344 232.684 97.3188 233.121 97.3112Z" fill="#002825"/>
            <path d="M246.451 86.8862C247.116 86.8796 247.777 86.9995 248.397 87.2396C248.977 87.4655 249.502 87.8131 249.936 88.259C250.389 88.7285 250.736 89.2892 250.955 89.9036C251.211 90.6196 251.335 91.3758 251.323 92.1361C251.342 92.3572 251.305 92.5795 251.218 92.7834C251.173 92.8433 251.113 92.8904 251.044 92.9201C250.975 92.9499 250.899 92.9613 250.824 92.9533H243.016C243.018 93.6093 243.119 94.2611 243.316 94.8867C243.477 95.3915 243.737 95.8589 244.082 96.2612C244.398 96.6214 244.794 96.903 245.238 97.0835C245.717 97.272 246.229 97.3649 246.743 97.3571C247.196 97.3666 247.647 97.3058 248.081 97.177C248.414 97.0749 248.737 96.9453 249.049 96.7896C249.282 96.6727 249.508 96.5434 249.728 96.4022C249.865 96.2994 250.027 96.237 250.198 96.2222C250.275 96.2188 250.351 96.2351 250.42 96.2696C250.489 96.3041 250.548 96.3556 250.592 96.4192L251.171 97.1753C250.91 97.489 250.602 97.7601 250.257 97.9789C249.899 98.2081 249.516 98.3967 249.117 98.5413C248.708 98.6889 248.287 98.7993 247.859 98.8709C247.434 98.9441 247.004 98.981 246.574 98.9813C245.807 98.9894 245.046 98.8493 244.333 98.5685C243.661 98.3018 243.055 97.8906 242.559 97.3639C242.039 96.7969 241.643 96.1274 241.396 95.3981C241.104 94.5322 240.964 93.6224 240.98 92.7086C240.969 91.9282 241.093 91.1518 241.345 90.4133C241.579 89.7303 241.947 89.1012 242.428 88.5631C242.909 88.0354 243.497 87.6166 244.153 87.3347C244.878 87.0279 245.659 86.8757 246.446 86.8879M246.492 88.4068C246.063 88.3831 245.633 88.4475 245.229 88.5959C244.825 88.7443 244.455 88.9736 244.143 89.2699C243.533 89.9281 243.158 90.7699 243.077 91.6638H249.459C249.464 91.2177 249.398 90.7738 249.263 90.3488C249.141 89.9687 248.943 89.6173 248.682 89.3158C248.426 89.0223 248.108 88.79 247.75 88.6362C247.352 88.4711 246.923 88.3901 246.492 88.3983" fill="#002825"/>
            <path d="M253.946 98.8148V87.0714H255.134C255.299 87.0539 255.465 87.0995 255.598 87.1988C255.698 87.3255 255.757 87.4795 255.767 87.6406L255.908 89.4721C256.25 88.7266 256.759 88.0702 257.395 87.5539C257.989 87.0917 258.723 86.8476 259.475 86.8624C260.04 86.8516 260.597 86.9955 261.086 87.2787L260.819 88.8231C260.807 88.9074 260.763 88.9839 260.697 89.0374C260.63 89.0909 260.546 89.1175 260.461 89.1119C260.291 89.0994 260.123 89.0622 259.964 89.0015C259.658 88.9186 259.342 88.8819 259.025 88.8927C258.368 88.8708 257.726 89.0936 257.224 89.518C256.684 90.0213 256.269 90.6446 256.014 91.3376V98.8131L253.946 98.8148Z" fill="#002825"/>
            <path d="M266.224 82.2038H268.091C268.269 82.1972 268.445 82.2505 268.589 82.355C268.715 82.4514 268.809 82.5851 268.855 82.7373L272.284 94.2904C272.344 94.4994 272.401 94.722 272.454 94.97C272.507 95.2181 272.553 95.4627 272.598 95.7244C272.653 95.4627 272.707 95.2147 272.768 94.9649C272.818 94.7397 272.88 94.5174 272.953 94.2989L276.857 82.7458C276.914 82.6026 277.008 82.477 277.129 82.3822C277.268 82.2683 277.442 82.208 277.621 82.2123H278.27C278.446 82.2046 278.62 82.258 278.762 82.3635C278.888 82.4617 278.983 82.5946 279.035 82.7458L282.916 94.2989C283.068 94.7496 283.192 95.2092 283.288 95.6751C283.332 95.4219 283.376 95.179 283.415 94.9479C283.451 94.7284 283.501 94.5115 283.566 94.2989L287.007 82.7458C287.052 82.5979 287.143 82.4682 287.267 82.3754C287.406 82.2628 287.58 82.2027 287.759 82.2055H289.509L284.332 98.8199H282.317L278.114 86.1472C278.019 85.8742 277.941 85.5956 277.881 85.313C277.843 85.4681 277.806 85.6171 277.772 85.7598C277.737 85.9025 277.699 86.0333 277.662 86.1472L273.434 98.8199H271.397L266.224 82.2038Z" fill="#002825"/>
            <path d="M295.641 86.8862C296.306 86.8796 296.966 86.9995 297.586 87.2396C298.166 87.4655 298.691 87.8131 299.126 88.259C299.578 88.7285 299.925 89.2892 300.144 89.9036C300.4 90.6196 300.525 91.3758 300.512 92.1361C300.531 92.3572 300.495 92.5795 300.407 92.7834C300.362 92.8433 300.302 92.8904 300.233 92.9201C300.164 92.9499 300.088 92.9613 300.013 92.9533H292.205C292.207 93.6093 292.308 94.2611 292.505 94.8867C292.666 95.3915 292.926 95.8589 293.271 96.2612C293.587 96.6214 293.983 96.903 294.427 97.0835C294.906 97.272 295.418 97.3649 295.933 97.3571C296.385 97.3666 296.836 97.3058 297.27 97.177C297.603 97.0748 297.927 96.9453 298.238 96.7896C298.471 96.6727 298.698 96.5434 298.917 96.4022C299.054 96.2994 299.217 96.237 299.387 96.2222C299.464 96.2188 299.541 96.2351 299.609 96.2696C299.678 96.3041 299.737 96.3556 299.781 96.4192L300.36 97.1753C300.099 97.489 299.791 97.7601 299.446 97.9789C299.088 98.2081 298.706 98.3967 298.306 98.5413C297.897 98.6889 297.476 98.7993 297.048 98.8709C296.623 98.9441 296.194 98.981 295.763 98.9813C294.996 98.9894 294.235 98.8493 293.522 98.5685C292.85 98.3018 292.244 97.8906 291.748 97.3639C291.228 96.7969 290.832 96.1274 290.585 95.3981C290.293 94.5322 290.153 93.6224 290.169 92.7086C290.162 91.9276 290.289 91.1512 290.545 90.4133C290.778 89.7303 291.147 89.1012 291.628 88.5631C292.109 88.0354 292.697 87.6166 293.352 87.3347C294.077 87.0279 294.859 86.8757 295.646 86.8879M295.692 88.4068C295.262 88.3831 294.832 88.4475 294.428 88.5959C294.024 88.7443 293.654 88.9736 293.342 89.2699C292.732 89.9281 292.358 90.7699 292.276 91.6638H298.659C298.663 91.2177 298.597 90.7738 298.462 90.3488C298.34 89.9687 298.143 89.6173 297.881 89.3158C297.625 89.0223 297.307 88.79 296.949 88.6362C296.551 88.4711 296.123 88.3901 295.692 88.3983" fill="#002825"/>
            <path d="M305.418 81.74H303.358V98.8165H305.418V81.74Z" fill="#002825"/>
            <path d="M312.612 99C312.222 99.0257 311.83 98.97 311.462 98.8364C311.095 98.7027 310.758 98.494 310.475 98.2236C309.942 97.6045 309.673 96.8 309.728 95.9843V88.7993H308.316C308.202 88.803 308.09 88.7643 308.002 88.6905C307.957 88.6466 307.922 88.5935 307.9 88.5348C307.878 88.4762 307.869 88.4134 307.873 88.3507V87.525L309.795 87.2804L310.27 83.6514C310.283 83.5413 310.337 83.4403 310.421 83.3676C310.512 83.2933 310.626 83.2541 310.743 83.2572H311.787V87.3042H315.145V88.7993H311.794V95.8484C311.778 96.0464 311.801 96.2456 311.863 96.4344C311.925 96.6232 312.024 96.7977 312.154 96.9476C312.275 97.0684 312.42 97.1628 312.579 97.2251C312.738 97.2874 312.908 97.3161 313.079 97.3095C313.27 97.3135 313.459 97.2836 313.639 97.2212C313.783 97.1714 313.921 97.1076 314.052 97.0309C314.169 96.9612 314.268 96.8984 314.349 96.8406C314.409 96.7899 314.483 96.7591 314.561 96.7522C314.623 96.7573 314.682 96.7781 314.733 96.8126C314.784 96.8471 314.825 96.8942 314.853 96.9493L315.454 97.9364C315.081 98.2791 314.645 98.5447 314.169 98.718C313.673 98.9059 313.146 99.0021 312.616 99.0017" fill="#002825"/>
        </g>
    </g>
    <defs>
        <clipPath id="clip0_26_1586">
            <rect width="331" height="99" fill="white"/>
        </clipPath>
    </defs>
</svg>